<?xml version="1.0" encoding="UTF-8"?>
<svg id="Layer_1" data-name="Layer 1" xmlns="http://www.w3.org/2000/svg" viewBox="0 0 600 174.19">
  <defs>
    <style>
      .cls-1 {
        fill: #070808;
      }

      .cls-1, .cls-2 {
        stroke-width: 0px;
      }

      .cls-2 {
        fill: #f58420;
      }
    </style>
  </defs>
  <g id="Logo_Design_2_Sec" data-name="Logo Design 2 Sec">
    <g id="Text_File" data-name="Text File">
      <g>
        <path class="cls-2" d="M223.75,130.94c-.23.43-.59.77-1.09,1.04s-1.12.39-1.87.39h-1.53v3.51h-1.83v-9.14h3.37c.71,0,1.31.12,1.81.37.5.24.87.58,1.12,1.01.25.43.37.91.37,1.45,0,.49-.12.95-.35,1.38ZM221.85,130.54c.24-.23.37-.56.37-.98,0-.89-.5-1.34-1.49-1.34h-1.45v2.66h1.45c.51,0,.88-.12,1.13-.35Z"/>
        <path class="cls-2" d="M232.98,126.73v9.14h-1.83v-3.89h-3.92v3.89h-1.83v-9.14h1.83v3.76h3.92v-3.76h1.83Z"/>
        <path class="cls-2" d="M242.06,126.73l-3.09,5.96v3.18h-1.83v-3.18l-3.11-5.96h2.07l1.97,4.18,1.95-4.18h2.04Z"/>
        <path class="cls-2" d="M244.56,135.64c-.51-.22-.92-.53-1.21-.94-.3-.41-.45-.9-.46-1.45h1.97c.03.38.16.67.4.89.24.22.57.33.99.33s.76-.1,1.01-.31c.24-.2.37-.47.37-.81,0-.27-.08-.49-.25-.67-.17-.17-.37-.31-.62-.41-.25-.1-.59-.21-1.03-.33-.59-.17-1.08-.35-1.45-.52-.37-.17-.69-.43-.96-.77-.27-.35-.4-.81-.4-1.38,0-.54.14-1.01.41-1.41.27-.4.65-.71,1.14-.92.49-.21,1.05-.32,1.68-.32.94,0,1.71.23,2.3.69.59.46.91,1.1.98,1.92h-2.02c-.02-.31-.15-.57-.4-.78-.25-.2-.58-.31-.99-.31-.36,0-.64.09-.86.27s-.32.45-.32.8c0,.24.08.45.24.61.16.16.36.29.6.39s.58.22,1.02.35c.59.17,1.08.35,1.45.52.38.17.7.44.97.79s.41.81.41,1.38c0,.49-.13.94-.38,1.36-.25.42-.62.75-1.11,1-.49.25-1.07.37-1.74.37-.64,0-1.21-.11-1.72-.33Z"/>
        <path class="cls-2" d="M252.94,126.73v9.14h-1.83v-9.14h1.83Z"/>
        <path class="cls-2" d="M256.63,135.36c-.72-.4-1.28-.96-1.7-1.67-.42-.71-.63-1.52-.63-2.42s.21-1.69.63-2.4.99-1.27,1.7-1.67c.72-.4,1.5-.6,2.36-.6s1.65.2,2.36.6,1.28.96,1.69,1.67.62,1.51.62,2.4-.21,1.7-.62,2.42c-.42.71-.98,1.27-1.7,1.67-.72.4-1.5.6-2.36.6-.86,0-1.64-.2-2.36-.6ZM260.44,133.96c.42-.25.75-.6.98-1.07s.35-1,.35-1.61-.12-1.15-.35-1.61-.56-.81-.98-1.05c-.42-.24-.9-.37-1.45-.37s-1.04.12-1.46.37-.75.6-.99,1.05-.35.99-.35,1.61.12,1.15.35,1.61.57.82.99,1.07.91.37,1.46.37c.55,0,1.04-.12,1.45-.37Z"/>
        <path class="cls-2" d="M271.25,126.73v1.48h-2.44v7.66h-1.83v-7.66h-2.44v-1.48h6.71Z"/>
        <path class="cls-2" d="M280.17,126.73v9.14h-1.83v-3.89h-3.92v3.89h-1.83v-9.14h1.83v3.76h3.92v-3.76h1.83Z"/>
        <path class="cls-2" d="M283.82,128.21v2.29h3.08v1.45h-3.08v2.42h3.47v1.49h-5.31v-9.16h5.31v1.49h-3.47Z"/>
        <path class="cls-2" d="M293.67,135.88l-2.02-3.56h-.86v3.56h-1.83v-9.14h3.43c.71,0,1.31.12,1.81.37.5.25.87.59,1.12,1.01.25.42.37.9.37,1.42,0,.6-.17,1.15-.52,1.63s-.87.82-1.56,1l2.19,3.71h-2.12ZM290.79,130.94h1.53c.5,0,.87-.12,1.11-.36.24-.24.37-.57.37-1s-.12-.74-.37-.98-.62-.35-1.11-.35h-1.53v2.69Z"/>
        <path class="cls-2" d="M302.96,134.13h-3.64l-.6,1.74h-1.93l3.29-9.16h2.14l3.29,9.16h-1.94l-.6-1.74ZM302.46,132.67l-1.32-3.82-1.32,3.82h2.65Z"/>
        <path class="cls-2" d="M313.05,130.94c-.23.43-.59.77-1.09,1.04s-1.12.39-1.87.39h-1.53v3.51h-1.83v-9.14h3.37c.71,0,1.31.12,1.81.37.5.24.87.58,1.12,1.01.25.43.37.91.37,1.45,0,.49-.12.95-.35,1.38ZM311.14,130.54c.24-.23.37-.56.37-.98,0-.89-.5-1.34-1.49-1.34h-1.45v2.66h1.45c.51,0,.88-.12,1.13-.35Z"/>
        <path class="cls-2" d="M321.97,126.73l-3.09,5.96v3.18h-1.83v-3.18l-3.11-5.96h2.07l1.97,4.18,1.95-4.18h2.04Z"/>
        <path class="cls-2" d="M331.73,130.43v1.55h-5.55v-1.55h5.55Z"/>
        <path class="cls-2" d="M341.62,135.88l-2.02-3.56h-.86v3.56h-1.83v-9.14h3.43c.71,0,1.31.12,1.81.37.5.25.87.59,1.12,1.01.25.42.37.9.37,1.42,0,.6-.17,1.15-.52,1.63s-.87.82-1.56,1l2.19,3.71h-2.12ZM338.74,130.94h1.53c.5,0,.87-.12,1.11-.36.24-.24.37-.57.37-1s-.12-.74-.37-.98-.62-.35-1.11-.35h-1.53v2.69Z"/>
        <path class="cls-2" d="M347.13,128.21v2.29h3.08v1.45h-3.08v2.42h3.47v1.49h-5.31v-9.16h5.31v1.49h-3.47Z"/>
        <path class="cls-2" d="M359.85,126.73v9.14h-1.83v-3.89h-3.92v3.89h-1.83v-9.14h1.83v3.76h3.92v-3.76h1.83Z"/>
        <path class="cls-2" d="M367.27,134.13h-3.64l-.6,1.74h-1.93l3.29-9.16h2.14l3.29,9.16h-1.94l-.6-1.74ZM366.77,132.67l-1.32-3.82-1.32,3.82h2.65Z"/>
        <path class="cls-2" d="M377.5,131.96c.33.42.5.9.5,1.44,0,.49-.12.92-.36,1.29-.24.37-.59.66-1.04.87-.45.21-.99.31-1.61.31h-3.94v-9.14h3.77c.62,0,1.15.1,1.61.3.45.2.79.48,1.02.84.23.36.35.76.35,1.22,0,.53-.14.98-.43,1.34-.28.36-.66.61-1.13.76.51.1.94.35,1.27.77ZM372.88,130.5h1.68c.44,0,.77-.1,1.01-.29.24-.2.35-.48.35-.84s-.12-.65-.35-.85c-.24-.2-.57-.3-1.01-.3h-1.68v2.29ZM375.77,134.07c.25-.21.37-.51.37-.89s-.13-.7-.39-.92-.62-.33-1.06-.33h-1.81v2.46h1.85c.45,0,.79-.11,1.04-.32Z"/>
        <path class="cls-2" d="M381.3,126.73v9.14h-1.83v-9.14h1.83Z"/>
        <path class="cls-2" d="M384.94,134.42h3.01v1.45h-4.85v-9.14h1.83v7.69Z"/>
        <path class="cls-2" d="M390.96,126.73v9.14h-1.83v-9.14h1.83Z"/>
        <path class="cls-2" d="M398.99,126.73v1.48h-2.44v7.66h-1.83v-7.66h-2.44v-1.48h6.71Z"/>
        <path class="cls-2" d="M405.93,134.13h-3.64l-.6,1.74h-1.93l3.29-9.16h2.14l3.29,9.16h-1.94l-.6-1.74ZM405.43,132.67l-1.32-3.82-1.32,3.82h2.65Z"/>
        <path class="cls-2" d="M415.93,126.73v1.48h-2.44v7.66h-1.83v-7.66h-2.44v-1.48h6.71Z"/>
        <path class="cls-2" d="M419.1,126.73v9.14h-1.83v-9.14h1.83Z"/>
        <path class="cls-2" d="M422.79,135.36c-.72-.4-1.28-.96-1.7-1.67-.42-.71-.63-1.52-.63-2.42s.21-1.69.63-2.4c.42-.71.99-1.27,1.7-1.67.72-.4,1.5-.6,2.36-.6s1.65.2,2.36.6,1.28.96,1.69,1.67.62,1.51.62,2.4-.21,1.7-.62,2.42c-.42.71-.98,1.27-1.7,1.67-.72.4-1.5.6-2.36.6-.86,0-1.64-.2-2.36-.6ZM426.6,133.96c.42-.25.75-.6.98-1.07s.35-1,.35-1.61-.12-1.15-.35-1.61-.56-.81-.98-1.05c-.42-.24-.9-.37-1.45-.37s-1.04.12-1.46.37-.75.6-.99,1.05c-.24.46-.35.99-.35,1.61s.12,1.15.35,1.61.57.82.99,1.07.91.37,1.46.37,1.04-.12,1.45-.37Z"/>
        <path class="cls-2" d="M439.01,135.88h-1.83l-4.15-6.28v6.28h-1.83v-9.16h1.83l4.15,6.29v-6.29h1.83v9.16Z"/>
        <path class="cls-2" d="M449.52,130.43v1.55h-5.55v-1.55h5.55Z"/>
        <path class="cls-2" d="M460.34,126.73v1.48h-3.81v2.34h2.92v1.45h-2.92v3.86h-1.83v-9.14h5.65Z"/>
        <path class="cls-2" d="M463.47,126.73v9.14h-1.83v-9.14h1.83Z"/>
        <path class="cls-2" d="M471.5,126.73v1.48h-2.44v7.66h-1.83v-7.66h-2.44v-1.48h6.71Z"/>
        <path class="cls-2" d="M480.66,135.88h-1.83l-4.15-6.28v6.28h-1.83v-9.16h1.83l4.15,6.29v-6.29h1.83v9.16Z"/>
        <path class="cls-2" d="M484.3,128.21v2.29h3.08v1.45h-3.08v2.42h3.47v1.49h-5.31v-9.16h5.31v1.49h-3.47Z"/>
        <path class="cls-2" d="M490.87,135.64c-.51-.22-.92-.53-1.21-.94-.3-.41-.45-.9-.46-1.45h1.97c.03.38.16.67.4.89.24.22.57.33.99.33s.76-.1,1.01-.31.37-.47.37-.81c0-.27-.08-.49-.25-.67-.17-.17-.37-.31-.62-.41-.25-.1-.59-.21-1.03-.33-.59-.17-1.08-.35-1.45-.52-.37-.17-.69-.43-.96-.77-.27-.35-.4-.81-.4-1.38,0-.54.14-1.01.41-1.41s.65-.71,1.14-.92c.49-.21,1.05-.32,1.68-.32.94,0,1.71.23,2.3.69.59.46.91,1.1.98,1.92h-2.02c-.02-.31-.15-.57-.4-.78-.25-.2-.58-.31-.99-.31-.36,0-.64.09-.86.27s-.32.45-.32.8c0,.24.08.45.24.61.16.16.36.29.6.39s.58.22,1.02.35c.59.17,1.08.35,1.45.52s.7.44.97.79c.27.35.41.81.41,1.38,0,.49-.13.94-.38,1.36-.25.42-.62.75-1.11,1-.49.25-1.07.37-1.74.37-.64,0-1.21-.11-1.72-.33Z"/>
        <path class="cls-2" d="M498.85,135.64c-.51-.22-.92-.53-1.21-.94-.3-.41-.45-.9-.46-1.45h1.97c.03.38.16.67.4.89.24.22.57.33.99.33s.76-.1,1.01-.31.37-.47.37-.81c0-.27-.08-.49-.25-.67-.17-.17-.37-.31-.62-.41-.25-.1-.59-.21-1.03-.33-.59-.17-1.08-.35-1.45-.52-.37-.17-.69-.43-.96-.77-.27-.35-.4-.81-.4-1.38,0-.54.14-1.01.41-1.41s.65-.71,1.14-.92c.49-.21,1.05-.32,1.68-.32.94,0,1.71.23,2.3.69.59.46.91,1.1.98,1.92h-2.02c-.02-.31-.15-.57-.4-.78-.25-.2-.58-.31-.99-.31-.36,0-.64.09-.86.27s-.32.45-.32.8c0,.24.08.45.24.61.16.16.36.29.6.39s.58.22,1.02.35c.59.17,1.08.35,1.45.52s.7.44.97.79c.27.35.41.81.41,1.38,0,.49-.13.94-.38,1.36-.25.42-.62.75-1.11,1-.49.25-1.07.37-1.74.37-.64,0-1.21-.11-1.72-.33Z"/>
        <path class="cls-2" d="M514.09,130.43v1.55h-5.55v-1.55h5.55Z"/>
        <path class="cls-2" d="M531.49,126.73l-2.55,9.14h-2.16l-1.72-6.51-1.79,6.51h-2.15s-2.46-9.14-2.46-9.14h1.97l1.61,7.1,1.86-7.1h2.04l1.76,7.06,1.62-7.06h1.98Z"/>
        <path class="cls-2" d="M534.52,128.21v2.29h3.08v1.45h-3.08v2.42h3.47v1.49h-5.31v-9.16h5.31v1.49h-3.47Z"/>
        <path class="cls-2" d="M541.49,134.42h3.01v1.45h-4.85v-9.14h1.83v7.69Z"/>
        <path class="cls-2" d="M547.5,134.42h3.01v1.45h-4.85v-9.14h1.83v7.69Z"/>
        <path class="cls-2" d="M559.5,135.88h-1.83l-4.15-6.28v6.28h-1.83v-9.16h1.83l4.15,6.29v-6.29h1.83v9.16Z"/>
        <path class="cls-2" d="M563.14,128.21v2.29h3.08v1.45h-3.08v2.42h3.47v1.49h-5.31v-9.16h5.31v1.49h-3.47Z"/>
        <path class="cls-2" d="M569.71,135.64c-.51-.22-.92-.53-1.21-.94-.3-.41-.45-.9-.46-1.45h1.97c.03.38.16.67.4.89.24.22.57.33.99.33s.76-.1,1.01-.31.37-.47.37-.81c0-.27-.08-.49-.25-.67-.17-.17-.37-.31-.62-.41-.25-.1-.59-.21-1.03-.33-.59-.17-1.08-.35-1.45-.52-.37-.17-.69-.43-.96-.77-.27-.35-.4-.81-.4-1.38,0-.54.14-1.01.41-1.41s.65-.71,1.14-.92c.49-.21,1.05-.32,1.68-.32.94,0,1.71.23,2.3.69.59.46.91,1.1.98,1.92h-2.02c-.02-.31-.15-.57-.4-.78-.25-.2-.58-.31-.99-.31-.36,0-.64.09-.86.27s-.32.45-.32.8c0,.24.08.45.24.61.16.16.36.29.6.39s.58.22,1.02.35c.59.17,1.08.35,1.45.52s.7.44.97.79c.27.35.41.81.41,1.38,0,.49-.13.94-.38,1.36-.25.42-.62.75-1.11,1-.49.25-1.07.37-1.74.37-.64,0-1.21-.11-1.72-.33Z"/>
        <path class="cls-2" d="M577.69,135.64c-.51-.22-.92-.53-1.21-.94-.3-.41-.45-.9-.46-1.45h1.97c.03.38.16.67.4.89.24.22.57.33.99.33s.76-.1,1.01-.31.37-.47.37-.81c0-.27-.08-.49-.25-.67-.17-.17-.37-.31-.62-.41-.25-.1-.59-.21-1.03-.33-.59-.17-1.08-.35-1.45-.52-.37-.17-.69-.43-.96-.77-.27-.35-.4-.81-.4-1.38,0-.54.14-1.01.41-1.41s.65-.71,1.14-.92c.49-.21,1.05-.32,1.68-.32.94,0,1.71.23,2.3.69.59.46.91,1.1.98,1.92h-2.02c-.02-.31-.15-.57-.4-.78-.25-.2-.58-.31-.99-.31-.36,0-.64.09-.86.27s-.32.45-.32.8c0,.24.08.45.24.61.16.16.36.29.6.39s.58.22,1.02.35c.59.17,1.08.35,1.45.52s.7.44.97.79c.27.35.41.81.41,1.38,0,.49-.13.94-.38,1.36-.25.42-.62.75-1.11,1-.49.25-1.07.37-1.74.37-.63,0-1.21-.11-1.72-.33Z"/>
      </g>
      <g id="Physio_Meet" data-name="Physio Meet">
        <path class="cls-1" d="M201.66,117.25c.93-1.19,1.54-3.12,1.83-5.79.29-2.67.44-5.72.44-9.15v-19.43c0-3.43-.15-6.48-.44-9.15-.29-2.67-.9-4.6-1.83-5.79v-.36h15.69c3.33,0,6.21.43,8.63,1.29,2.42.86,4.41,2.05,5.96,3.57,1.55,1.52,2.69,3.35,3.43,5.47.74,2.12,1.1,4.42,1.1,6.89,0,3.86-.65,6.99-1.95,9.4-1.3,2.41-2.99,4.29-5.08,5.64-2.09,1.36-4.46,2.31-7.09,2.86-2.63.55-5.29.89-7.96,1.04.04,3.14.2,5.91.49,8.29.29,2.38.88,4.12,1.77,5.22v.36h-14.99v-.36h0ZM214.39,94.31c1.43-.14,2.83-.37,4.18-.68,1.36-.31,2.56-.8,3.6-1.46,1.05-.67,1.88-1.55,2.5-2.64.62-1.1.93-2.48.93-4.14,0-2.38-.79-4.18-2.38-5.39-1.59-1.21-3.84-1.82-6.74-1.82h-2.09v16.15h0Z"/>
        <path class="cls-1" d="M254.95,67.59v.36c-.93,1.19-1.54,3.12-1.83,5.79-.29,2.67-.44,5.72-.44,9.15v6.5l13.07-2v-4.5c0-3.43-.15-6.48-.44-9.15-.29-2.67-.9-4.6-1.83-5.79v-.36h14.99v.36c-.93,1.19-1.54,3.12-1.83,5.79-.29,2.67-.44,5.72-.44,9.15v19.43c0,3.43.15,6.48.44,9.15.29,2.67.9,4.6,1.83,5.79v.36h-14.99v-.36c.93-1.19,1.54-3.12,1.83-5.79.29-2.67.44-5.72.44-9.15v-5.72l-13.07,2v3.72c0,3.43.15,6.48.44,9.15.29,2.67.9,4.6,1.83,5.79v.36h-14.99v-.36c.93-1.19,1.54-3.12,1.83-5.79.29-2.67.44-5.72.44-9.15v-19.43c0-3.43-.15-6.48-.44-9.15-.29-2.67-.9-4.6-1.83-5.79v-.36h14.99Z"/>
        <path class="cls-1" d="M283.77,72.74c-.35-.81-.83-1.72-1.45-2.72-.62-1-1.22-1.69-1.8-2.07v-.36h14.59v.36c-.31.43-.46.98-.46,1.64,0,.52.1,1.06.29,1.61.19.55.39,1.06.58,1.54l5.06,12.29,5.11-12.29c.19-.48.39-.99.58-1.54.19-.55.29-1.08.29-1.61,0-.67-.15-1.21-.46-1.64v-.36h14.59v.36c-.58.38-1.19,1.07-1.83,2.07-.64,1-1.11,1.91-1.42,2.72l-11.62,28.01v1.57c0,3.43.15,6.48.44,9.15.29,2.67.9,4.6,1.83,5.79v.36h-14.99v-.36c.97-1.19,1.59-3.12,1.86-5.79.27-2.67.41-5.72.41-9.15v-1.57l-11.56-28.01Z"/>
        <path class="cls-1" d="M321.54,98.6c.74,1.14,1.73,2.26,2.99,3.36,1.26,1.1,2.69,2.06,4.3,2.89,1.61.83,3.33,1.5,5.17,2,1.84.5,3.69.75,5.55.75,1.36,0,2.48-.26,3.37-.79.89-.52,1.34-1.4,1.34-2.64v-.36c0-.9-.3-1.68-.9-2.32-.6-.64-1.42-1.23-2.47-1.75-1.05-.52-2.26-1.02-3.63-1.5-1.38-.48-2.84-1-4.39-1.57-1.55-.57-2.99-1.25-4.33-2.04-1.34-.79-2.5-1.75-3.49-2.89-.99-1.14-1.77-2.51-2.35-4.11-.58-1.6-.87-3.49-.87-5.68v-.71c0-3.14.51-5.67,1.54-7.57,1.03-1.9,2.34-3.36,3.95-4.36,1.61-1,3.37-1.67,5.29-2,1.92-.33,3.79-.5,5.61-.5.93,0,1.88.06,2.85.18.97.12,1.89.24,2.76.36.87.12,1.67.24,2.41.36.74.12,1.36.18,1.86.18.58,0,1.15-.02,1.71-.07.56-.05,1.05-.24,1.48-.57l.29.07c.19,2.81.39,5.6.58,8.36.19,2.76.39,5.55.58,8.36l-.23.14c-.66-1-1.55-1.9-2.67-2.72-1.12-.81-2.34-1.5-3.66-2.07-1.32-.57-2.68-1.01-4.1-1.32-1.41-.31-2.72-.46-3.92-.46-1.59,0-2.91.24-3.95.71-1.05.48-1.57,1.29-1.57,2.43,0,.76.19,1.38.58,1.86.39.48.9.89,1.54,1.25.64.36,1.39.69,2.27,1,.87.31,1.79.63,2.76.96,1.7.62,3.46,1.28,5.26,1.97,1.8.69,3.45,1.63,4.94,2.82,1.49,1.19,2.71,2.74,3.66,4.64.95,1.91,1.42,4.38,1.42,7.43v.71c0,2.95-.46,5.39-1.39,7.32-.93,1.93-2.15,3.47-3.66,4.61-1.51,1.14-3.22,1.94-5.14,2.39s-3.88.68-5.9.68c-1.82,0-3.41-.13-4.76-.39-1.36-.26-2.56-.56-3.6-.89-1.05-.33-1.96-.63-2.73-.89-.77-.26-1.47-.39-2.09-.39-.46,0-.95.1-1.45.29-.5.19-.91.48-1.22.86l-.29-.07-1.57-18.22.29-.07Z"/>
        <path class="cls-1" d="M373.55,67.59v.36c-.93,1.19-1.54,3.12-1.83,5.79-.29,2.67-.44,5.72-.44,9.15v19.43c0,3.43.15,6.48.44,9.15.29,2.67.9,4.6,1.83,5.79v.36h-14.99v-.36c.93-1.19,1.54-3.12,1.83-5.79.29-2.67.44-5.72.44-9.15v-19.43c0-3.43-.15-6.48-.44-9.15-.29-2.67-.9-4.6-1.83-5.79v-.36h14.99Z"/>
        <path class="cls-1" d="M421.89,92.81c0,4.43-.58,8.25-1.74,11.47-1.16,3.22-2.73,5.87-4.71,7.97-1.98,2.1-4.28,3.64-6.91,4.64-2.63,1-5.42,1.5-8.37,1.5h-.76c-2.98,0-5.79-.5-8.43-1.5-2.63-1-4.94-2.55-6.91-4.64-1.98-2.1-3.54-4.75-4.71-7.97-1.16-3.22-1.74-7.04-1.74-11.47v-.36c0-4.43.58-8.26,1.74-11.5,1.16-3.24,2.73-5.91,4.71-8,1.98-2.1,4.28-3.64,6.91-4.64,2.63-1,5.44-1.5,8.43-1.5h.76c2.94,0,5.73.5,8.37,1.5,2.63,1,4.94,2.55,6.91,4.64,1.98,2.1,3.54,4.76,4.71,8,1.16,3.24,1.74,7.07,1.74,11.5v.36ZM388.42,92.6c0,2.24.26,4.28.78,6.11.52,1.83,1.26,3.42,2.21,4.75.95,1.33,2.1,2.36,3.46,3.07,1.36.71,2.87,1.07,4.53,1.07h.76c1.67,0,3.17-.36,4.5-1.07,1.34-.71,2.48-1.74,3.43-3.07.95-1.33,1.69-2.92,2.21-4.75.52-1.83.78-3.87.78-6.11s-.26-4.22-.78-6.07c-.52-1.86-1.26-3.44-2.21-4.75-.95-1.31-2.09-2.33-3.43-3.07-1.34-.74-2.84-1.11-4.5-1.11h-.76c-1.67,0-3.18.37-4.53,1.11-1.36.74-2.51,1.76-3.46,3.07-.95,1.31-1.69,2.89-2.21,4.75-.52,1.86-.78,3.88-.78,6.07Z"/>
        <path class="cls-1" d="M470.7,90.81l-9.24,17.08-9.18-17.08-.35,17.08c-.08,2.29.02,4.23.29,5.82.27,1.6.68,2.78,1.22,3.54v.36h-13.54v-.36c.54-.76.92-1.94,1.13-3.54.21-1.6.36-3.54.44-5.82l.52-25.79c.04-.57.06-1.13.06-1.68v-1.68c0-2.1-.13-4-.38-5.72-.25-1.72-.82-3.41-1.71-5.07v-.36h11.16l10.34,18.86,10.4-18.86h11.16v.36c-.89,1.67-1.46,3.37-1.71,5.11-.25,1.74-.38,3.63-.38,5.68v1.68c0,.55.02,1.11.06,1.68l.52,25.79c.08,2.29.22,4.23.44,5.82.21,1.6.59,2.78,1.13,3.54v.36h-13.54v-.36c.54-.76.95-1.94,1.22-3.54.27-1.6.37-3.54.29-5.82l-.35-17.08Z"/>
        <path class="cls-1" d="M487.14,117.25c.93-1.19,1.54-3.12,1.83-5.79.29-2.67.44-5.72.44-9.15v-19.43c0-3.43-.15-6.48-.44-9.15-.29-2.67-.9-4.6-1.83-5.79v-.36h22.98c1.22,0,2.36-.04,3.43-.11,1.07-.07,2.01-.18,2.85-.32.83-.14,1.5-.36,2-.64l.29.14,2.09,15.22-.29.07c-.85-.86-1.73-1.51-2.64-1.97-.91-.45-1.88-.79-2.91-1-1.03-.21-2.1-.35-3.22-.39-1.12-.05-2.32-.07-3.6-.07h-8.25v9.29h6.62c1.9,0,3.62-.12,5.17-.36,1.55-.24,2.75-.81,3.6-1.72l.29.14v14.51l-.29.14c-.85-.9-1.72-1.6-2.62-2.07-.89-.48-1.83-.82-2.82-1.04-.99-.21-2.03-.35-3.14-.39-1.1-.05-2.29-.07-3.57-.07h-3.25v9.72h9.12c1.28,0,2.48-.01,3.6-.04s2.2-.14,3.22-.36c1.03-.21,2-.56,2.91-1.04.91-.48,1.79-1.14,2.64-2l.29.07-2.09,15.22-.29.14c-.5-.29-1.17-.5-2-.64-.83-.14-1.78-.25-2.85-.32-1.07-.07-2.21-.11-3.43-.11h-23.85v-.36h0Z"/>
        <path class="cls-1" d="M525.44,117.25c.93-1.19,1.54-3.12,1.83-5.79.29-2.67.44-5.72.44-9.15v-19.43c0-3.43-.15-6.48-.44-9.15-.29-2.67-.9-4.6-1.83-5.79v-.36h22.98c1.22,0,2.36-.04,3.43-.11,1.07-.07,2.01-.18,2.85-.32.83-.14,1.5-.36,2-.64l.29.14,2.09,15.22-.29.07c-.85-.86-1.73-1.51-2.64-1.97-.91-.45-1.88-.79-2.91-1-1.03-.21-2.1-.35-3.22-.39-1.12-.05-2.32-.07-3.6-.07h-8.25v9.29h6.62c1.9,0,3.62-.12,5.17-.36,1.55-.24,2.75-.81,3.6-1.72l.29.14v14.51l-.29.14c-.85-.9-1.72-1.6-2.62-2.07-.89-.48-1.83-.82-2.82-1.04-.99-.21-2.03-.35-3.14-.39-1.1-.05-2.29-.07-3.57-.07h-3.25v9.72h9.12c1.28,0,2.48-.01,3.6-.04s2.2-.14,3.22-.36c1.03-.21,2-.56,2.91-1.04.91-.48,1.79-1.14,2.64-2l.29.07-2.09,15.22-.29.14c-.5-.29-1.17-.5-2-.64-.83-.14-1.78-.25-2.85-.32-1.07-.07-2.21-.11-3.43-.11h-23.85v-.36h0Z"/>
        <path class="cls-1" d="M573.26,117.25c.97-1.19,1.59-3.12,1.86-5.79.27-2.67.41-5.72.41-9.15v-23.79c-1.24,0-2.41.02-3.51.07-1.1.05-2.15.18-3.14.39-.99.21-1.94.55-2.85,1-.91.45-1.77,1.11-2.59,1.97l-.29-.07,2.09-15.22.29-.14c.5.29,1.17.5,2,.64.83.14,1.78.25,2.85.32,1.07.07,2.21.11,3.43.11h13.89c1.22,0,2.36-.04,3.43-.11,1.07-.07,2.02-.18,2.88-.32.85-.14,1.53-.36,2.03-.64l.29.14,2.09,15.22-.29.07c-.81-.86-1.68-1.51-2.59-1.97-.91-.45-1.87-.79-2.88-1-1.01-.21-2.06-.35-3.17-.39-1.1-.05-2.28-.07-3.51-.07v23.79c0,3.43.15,6.48.44,9.15.29,2.67.9,4.6,1.83,5.79v.36h-14.99v-.36Z"/>
      </g>
    </g>
    <g id="Icon">
      <g>
        <path class="cls-2" d="M113.91,75.76c-.03-.06-.06-.12-.08-.18-2.28-4.97-5.39-9.44-9.15-13.36-7.14-7.45-16.63-12.89-27.24-15.95-2.04-.59-4.1-1.1-6.17-1.57-12.58-2.82-25.74-3.75-38.04-7.39-.15-.04-.3-.09-.45-.14-3.06-.93-6.07-2.02-9-3.37-7.24-3.32-14.58-7.93-20.19-13.46-1.19-1.18-2.01-2.05-2.01-2.05,0,0,0,.15,0,0,.05.99.11,1.96.18,2.9.04.54.08,1.07.12,1.59.64,7.96,2.58,15.91,6.99,22.42,2.79,4.13,6.58,7.68,11.65,10.3,4.15,2.14,8.15,4.27,12.26,6.23l-.02,109.59c17.27-2.71,22.37-13.87,25.13-28.11.28-1.46.56-2.91.85-4.37.63-3.25,1.26-6.51,1.9-9.76.69-3.57,1.39-7.15,2.08-10.72,2.43-12.53,4.87-25.07,7.3-37.6.33-1.71.66-3.43,1-5.14.08.03.17.07.25.1,4.86,1.97,10.17,4.5,14.57,7.65,7.28,5.22,12.09,12.17,8.32,21.18-.1.23-.2.46-.3.69-4.23,9.29-14.09,15.89-22.58,22.25-1.01.75-1.99,1.5-2.95,2.25,0,0-.93.73-1.86,1.46-.94.74-1.89,1.48-1.89,1.48,0,0,1.13-.2,3.06-.64,1.01-.23,2.24-.53,3.64-.91.28-.08.58-.16.87-.24,8.89-2.46,17.69-5.57,25.56-10.11,12.68-7.33,19.77-19.03,19.41-31.61-.13-4.41-1.17-8.93-3.2-13.4Z"/>
        <g>
          <path class="cls-2" d="M173.84,37.31c-7.94.37-19.72,1.67-32.59,5.62-10.55,3.23-21.83,8.25-32.35,15.99,1.18,1.23,2.29,2.5,3.34,3.81,2.75,3.44,5.05,7.18,6.83,11.11.26.58.51,1.16.75,1.74,1.36,3.37,2.24,6.81,2.64,10.27,6.09-3.69,12.38-7.2,18.68-10.27.01,0,.03-.01.04-.02.02-.01.05-.02.07-.03v.38c2.75,14.15,5.49,28.3,8.24,42.45,1.61,8.28,3.22,16.57,4.82,24.85,2.78,14.32,7.89,25.63,25.41,28.16l.02-134.05h-5.89Z"/>
          <path class="cls-2" d="M88.94,102.76c1.35-3.23,2.32-8.2-4.8-14.08-.34-.28-.69-.55-1.05-.83-4.92,8.51-8.98,18.44-11.82,30.02-.3,1.22-.59,2.46-.86,3.72.29-.21.57-.42.86-.63,7.32-5.42,14.68-11.06,17.67-18.2Z"/>
        </g>
      </g>
      <g>
        <path class="cls-2" d="M66.01,35.85c1.95,1.45,4.2,2.52,6.64,3.12,1.42.35,2.9.53,4.42.53,4.14,0,7.97-1.36,11.06-3.65,4.56-3.38,7.52-8.81,7.52-14.93,0-10.26-8.32-18.58-18.58-18.58s-18.58,8.32-18.58,18.58c0,6.12,2.96,11.54,7.52,14.93Z"/>
        <path class="cls-2" d="M122.02,35.85c3.09,2.29,6.91,3.65,11.06,3.65,1.52,0,3-.18,4.42-.53,2.44-.59,4.68-1.67,6.64-3.12,4.56-3.38,7.52-8.81,7.52-14.93,0-10.26-8.32-18.58-18.58-18.58s-18.58,8.32-18.58,18.58c0,6.12,2.96,11.55,7.52,14.93Z"/>
      </g>
    </g>
  </g>
</svg>