<?xml version="1.0" encoding="UTF-8"?>
<svg xmlns="http://www.w3.org/2000/svg" xmlns:xlink="http://www.w3.org/1999/xlink" width="200px" height="80px" viewBox="0 0 200 80" version="1.1">
<g id="surface2">
<path style=" stroke:none;fill-rule:nonzero;fill:rgb(96.078432%,51.764709%,12.54902%);fill-opacity:1;" d="M 75.429688 46.164062 C 75.367188 46.230469 75.269531 46.285156 75.132812 46.324219 C 74.996094 46.363281 74.824219 46.382812 74.621094 46.382812 L 74.199219 46.382812 L 74.199219 46.925781 L 73.695312 46.925781 L 73.695312 45.519531 L 74.621094 45.519531 C 74.8125 45.519531 74.980469 45.535156 75.117188 45.574219 C 75.253906 45.613281 75.355469 45.664062 75.421875 45.730469 C 75.492188 45.796875 75.527344 45.871094 75.527344 45.953125 C 75.527344 46.027344 75.496094 46.097656 75.429688 46.164062 Z M 74.90625 46.101562 C 74.972656 46.066406 75.007812 46.019531 75.007812 45.953125 C 75.007812 45.816406 74.871094 45.746094 74.597656 45.746094 L 74.199219 45.746094 L 74.199219 46.15625 L 74.597656 46.15625 C 74.738281 46.15625 74.839844 46.140625 74.90625 46.101562 Z M 74.90625 46.101562 "/>
<path style=" stroke:none;fill-rule:nonzero;fill:rgb(96.078432%,51.764709%,12.54902%);fill-opacity:1;" d="M 77.964844 45.519531 L 77.964844 46.925781 L 77.460938 46.925781 L 77.460938 46.324219 L 76.386719 46.324219 L 76.386719 46.925781 L 75.882812 46.925781 L 75.882812 45.519531 L 76.386719 45.519531 L 76.386719 46.097656 L 77.460938 46.097656 L 77.460938 45.519531 Z M 77.964844 45.519531 "/>
<path style=" stroke:none;fill-rule:nonzero;fill:rgb(96.078432%,51.764709%,12.54902%);fill-opacity:1;" d="M 80.460938 45.519531 L 79.609375 46.433594 L 79.609375 46.925781 L 79.105469 46.925781 L 79.105469 46.433594 L 78.253906 45.519531 L 78.824219 45.519531 L 79.363281 46.160156 L 79.898438 45.519531 Z M 80.460938 45.519531 "/>
<path style=" stroke:none;fill-rule:nonzero;fill:rgb(96.078432%,51.764709%,12.54902%);fill-opacity:1;" d="M 81.144531 46.886719 C 81.003906 46.855469 80.894531 46.804688 80.8125 46.742188 C 80.730469 46.679688 80.6875 46.605469 80.6875 46.519531 L 81.226562 46.519531 C 81.234375 46.578125 81.269531 46.621094 81.335938 46.65625 C 81.402344 46.691406 81.492188 46.707031 81.609375 46.707031 C 81.726562 46.707031 81.816406 46.691406 81.882812 46.660156 C 81.953125 46.628906 81.984375 46.585938 81.984375 46.535156 C 81.984375 46.492188 81.960938 46.460938 81.917969 46.433594 C 81.871094 46.40625 81.816406 46.382812 81.746094 46.367188 C 81.679688 46.355469 81.582031 46.335938 81.464844 46.316406 C 81.300781 46.289062 81.167969 46.265625 81.066406 46.238281 C 80.964844 46.210938 80.875 46.171875 80.804688 46.121094 C 80.730469 46.066406 80.695312 45.996094 80.695312 45.90625 C 80.695312 45.824219 80.730469 45.75 80.804688 45.6875 C 80.878906 45.628906 80.984375 45.578125 81.117188 45.546875 C 81.253906 45.515625 81.40625 45.496094 81.578125 45.496094 C 81.839844 45.496094 82.046875 45.53125 82.210938 45.601562 C 82.371094 45.675781 82.460938 45.773438 82.476562 45.898438 L 81.925781 45.898438 C 81.917969 45.851562 81.882812 45.808594 81.8125 45.777344 C 81.746094 45.746094 81.65625 45.730469 81.542969 45.730469 C 81.445312 45.730469 81.367188 45.746094 81.308594 45.773438 C 81.246094 45.800781 81.21875 45.84375 81.21875 45.894531 C 81.21875 45.933594 81.242188 45.964844 81.285156 45.992188 C 81.328125 46.015625 81.382812 46.035156 81.449219 46.050781 C 81.515625 46.066406 81.609375 46.085938 81.730469 46.105469 C 81.890625 46.132812 82.027344 46.15625 82.128906 46.183594 C 82.230469 46.210938 82.320312 46.253906 82.394531 46.304688 C 82.46875 46.359375 82.507812 46.429688 82.507812 46.515625 C 82.507812 46.59375 82.472656 46.664062 82.402344 46.726562 C 82.332031 46.792969 82.230469 46.84375 82.097656 46.882812 C 81.960938 46.917969 81.800781 46.9375 81.617188 46.9375 C 81.441406 46.9375 81.285156 46.921875 81.144531 46.886719 Z M 81.144531 46.886719 "/>
<path style=" stroke:none;fill-rule:nonzero;fill:rgb(96.078432%,51.764709%,12.54902%);fill-opacity:1;" d="M 83.445312 45.519531 L 83.445312 46.925781 L 82.941406 46.925781 L 82.941406 45.519531 Z M 83.445312 45.519531 "/>
<path style=" stroke:none;fill-rule:nonzero;fill:rgb(96.078432%,51.764709%,12.54902%);fill-opacity:1;" d="M 84.460938 46.847656 C 84.265625 46.785156 84.109375 46.699219 83.992188 46.589844 C 83.878906 46.480469 83.820312 46.355469 83.820312 46.21875 C 83.820312 46.078125 83.878906 45.957031 83.992188 45.847656 C 84.109375 45.738281 84.265625 45.652344 84.460938 45.589844 C 84.65625 45.527344 84.875 45.496094 85.109375 45.496094 C 85.347656 45.496094 85.5625 45.527344 85.757812 45.589844 C 85.953125 45.652344 86.109375 45.738281 86.222656 45.847656 C 86.335938 45.957031 86.394531 46.078125 86.394531 46.21875 C 86.394531 46.355469 86.335938 46.480469 86.222656 46.589844 C 86.109375 46.699219 85.953125 46.785156 85.757812 46.847656 C 85.558594 46.90625 85.34375 46.9375 85.109375 46.9375 C 84.875 46.9375 84.65625 46.90625 84.460938 46.847656 Z M 85.507812 46.628906 C 85.625 46.589844 85.714844 46.535156 85.777344 46.464844 C 85.84375 46.394531 85.875 46.3125 85.875 46.21875 C 85.875 46.121094 85.84375 46.039062 85.777344 45.96875 C 85.714844 45.898438 85.625 45.84375 85.507812 45.808594 C 85.394531 45.769531 85.257812 45.75 85.109375 45.75 C 84.957031 45.75 84.824219 45.769531 84.707031 45.808594 C 84.589844 45.84375 84.5 45.898438 84.4375 45.96875 C 84.371094 46.039062 84.339844 46.121094 84.339844 46.21875 C 84.339844 46.3125 84.371094 46.394531 84.4375 46.464844 C 84.5 46.535156 84.589844 46.589844 84.707031 46.628906 C 84.824219 46.667969 84.957031 46.6875 85.109375 46.6875 C 85.257812 46.6875 85.394531 46.667969 85.507812 46.628906 Z M 85.507812 46.628906 "/>
<path style=" stroke:none;fill-rule:nonzero;fill:rgb(96.078432%,51.764709%,12.54902%);fill-opacity:1;" d="M 88.476562 45.519531 L 88.476562 45.746094 L 87.808594 45.746094 L 87.808594 46.925781 L 87.304688 46.925781 L 87.304688 45.746094 L 86.632812 45.746094 L 86.632812 45.519531 Z M 88.476562 45.519531 "/>
<path style=" stroke:none;fill-rule:nonzero;fill:rgb(96.078432%,51.764709%,12.54902%);fill-opacity:1;" d="M 90.925781 45.519531 L 90.925781 46.925781 L 90.421875 46.925781 L 90.421875 46.324219 L 89.347656 46.324219 L 89.347656 46.925781 L 88.84375 46.925781 L 88.84375 45.519531 L 89.347656 45.519531 L 89.347656 46.097656 L 90.421875 46.097656 L 90.421875 45.519531 Z M 90.925781 45.519531 "/>
<path style=" stroke:none;fill-rule:nonzero;fill:rgb(96.078432%,51.764709%,12.54902%);fill-opacity:1;" d="M 91.925781 45.746094 L 91.925781 46.097656 L 92.773438 46.097656 L 92.773438 46.320312 L 91.925781 46.320312 L 91.925781 46.695312 L 92.878906 46.695312 L 92.878906 46.925781 L 91.421875 46.925781 L 91.421875 45.515625 L 92.878906 45.515625 L 92.878906 45.746094 Z M 91.925781 45.746094 "/>
<path style=" stroke:none;fill-rule:nonzero;fill:rgb(96.078432%,51.764709%,12.54902%);fill-opacity:1;" d="M 94.632812 46.925781 L 94.078125 46.375 L 93.839844 46.375 L 93.839844 46.925781 L 93.339844 46.925781 L 93.339844 45.519531 L 94.28125 45.519531 C 94.476562 45.519531 94.640625 45.535156 94.777344 45.574219 C 94.914062 45.613281 95.015625 45.664062 95.085938 45.730469 C 95.152344 45.796875 95.1875 45.867188 95.1875 45.949219 C 95.1875 46.042969 95.140625 46.125 95.042969 46.199219 C 94.949219 46.273438 94.804688 46.324219 94.617188 46.355469 L 95.214844 46.925781 Z M 93.839844 46.164062 L 94.261719 46.164062 C 94.398438 46.164062 94.5 46.144531 94.570312 46.109375 C 94.636719 46.074219 94.667969 46.019531 94.667969 45.953125 C 94.667969 45.890625 94.636719 45.839844 94.570312 45.804688 C 94.5 45.769531 94.398438 45.75 94.261719 45.75 L 93.839844 45.75 Z M 93.839844 46.164062 "/>
<path style=" stroke:none;fill-rule:nonzero;fill:rgb(96.078432%,51.764709%,12.54902%);fill-opacity:1;" d="M 97.183594 46.65625 L 96.183594 46.65625 L 96.019531 46.925781 L 95.488281 46.925781 L 96.394531 45.515625 L 96.980469 45.515625 L 97.882812 46.925781 L 97.351562 46.925781 Z M 97.046875 46.429688 L 96.683594 45.84375 L 96.320312 46.429688 Z M 97.046875 46.429688 "/>
<path style=" stroke:none;fill-rule:nonzero;fill:rgb(96.078432%,51.764709%,12.54902%);fill-opacity:1;" d="M 99.957031 46.164062 C 99.894531 46.230469 99.792969 46.285156 99.660156 46.324219 C 99.523438 46.363281 99.351562 46.382812 99.144531 46.382812 L 98.722656 46.382812 L 98.722656 46.925781 L 98.222656 46.925781 L 98.222656 45.519531 L 99.144531 45.519531 C 99.339844 45.519531 99.503906 45.535156 99.640625 45.574219 C 99.777344 45.613281 99.882812 45.664062 99.949219 45.730469 C 100.019531 45.796875 100.050781 45.871094 100.050781 45.953125 C 100.050781 46.027344 100.019531 46.097656 99.957031 46.164062 Z M 99.433594 46.101562 C 99.5 46.066406 99.535156 46.019531 99.535156 45.953125 C 99.535156 45.816406 99.398438 45.746094 99.125 45.746094 L 98.722656 45.746094 L 98.722656 46.15625 L 99.125 46.15625 C 99.261719 46.15625 99.367188 46.140625 99.433594 46.101562 Z M 99.433594 46.101562 "/>
<path style=" stroke:none;fill-rule:nonzero;fill:rgb(96.078432%,51.764709%,12.54902%);fill-opacity:1;" d="M 102.40625 45.519531 L 101.554688 46.433594 L 101.554688 46.925781 L 101.054688 46.925781 L 101.054688 46.433594 L 100.199219 45.519531 L 100.769531 45.519531 L 101.308594 46.160156 L 101.84375 45.519531 Z M 102.40625 45.519531 "/>
<path style=" stroke:none;fill-rule:nonzero;fill:rgb(96.078432%,51.764709%,12.54902%);fill-opacity:1;" d="M 105.085938 46.085938 L 105.085938 46.324219 L 103.5625 46.324219 L 103.5625 46.085938 Z M 105.085938 46.085938 "/>
<path style=" stroke:none;fill-rule:nonzero;fill:rgb(96.078432%,51.764709%,12.54902%);fill-opacity:1;" d="M 107.804688 46.925781 L 107.25 46.375 L 107.011719 46.375 L 107.011719 46.925781 L 106.507812 46.925781 L 106.507812 45.519531 L 107.449219 45.519531 C 107.644531 45.519531 107.8125 45.535156 107.949219 45.574219 C 108.085938 45.613281 108.1875 45.664062 108.253906 45.730469 C 108.324219 45.796875 108.359375 45.867188 108.359375 45.949219 C 108.359375 46.042969 108.308594 46.125 108.214844 46.199219 C 108.117188 46.273438 107.976562 46.324219 107.785156 46.355469 L 108.386719 46.925781 Z M 107.011719 46.164062 L 107.433594 46.164062 C 107.570312 46.164062 107.671875 46.144531 107.738281 46.109375 C 107.804688 46.074219 107.839844 46.019531 107.839844 45.953125 C 107.839844 45.890625 107.804688 45.839844 107.738281 45.804688 C 107.671875 45.769531 107.570312 45.75 107.433594 45.75 L 107.011719 45.75 Z M 107.011719 46.164062 "/>
<path style=" stroke:none;fill-rule:nonzero;fill:rgb(96.078432%,51.764709%,12.54902%);fill-opacity:1;" d="M 109.316406 45.746094 L 109.316406 46.097656 L 110.164062 46.097656 L 110.164062 46.320312 L 109.316406 46.320312 L 109.316406 46.695312 L 110.273438 46.695312 L 110.273438 46.925781 L 108.8125 46.925781 L 108.8125 45.515625 L 110.273438 45.515625 L 110.273438 45.746094 Z M 109.316406 45.746094 "/>
<path style=" stroke:none;fill-rule:nonzero;fill:rgb(96.078432%,51.764709%,12.54902%);fill-opacity:1;" d="M 112.8125 45.519531 L 112.8125 46.925781 L 112.308594 46.925781 L 112.308594 46.324219 L 111.234375 46.324219 L 111.234375 46.925781 L 110.730469 46.925781 L 110.730469 45.519531 L 111.234375 45.519531 L 111.234375 46.097656 L 112.308594 46.097656 L 112.308594 45.519531 Z M 112.8125 45.519531 "/>
<path style=" stroke:none;fill-rule:nonzero;fill:rgb(96.078432%,51.764709%,12.54902%);fill-opacity:1;" d="M 114.847656 46.65625 L 113.847656 46.65625 L 113.683594 46.925781 L 113.152344 46.925781 L 114.058594 45.515625 L 114.644531 45.515625 L 115.546875 46.925781 L 115.015625 46.925781 Z M 114.710938 46.429688 L 114.347656 45.84375 L 113.984375 46.429688 Z M 114.710938 46.429688 "/>
<path style=" stroke:none;fill-rule:nonzero;fill:rgb(96.078432%,51.764709%,12.54902%);fill-opacity:1;" d="M 117.660156 46.320312 C 117.75 46.386719 117.796875 46.460938 117.796875 46.542969 C 117.796875 46.617188 117.761719 46.683594 117.695312 46.742188 C 117.632812 46.800781 117.535156 46.84375 117.410156 46.875 C 117.285156 46.910156 117.140625 46.925781 116.96875 46.925781 L 115.886719 46.925781 L 115.886719 45.519531 L 116.921875 45.519531 C 117.09375 45.519531 117.238281 45.535156 117.363281 45.5625 C 117.484375 45.59375 117.578125 45.636719 117.644531 45.691406 C 117.707031 45.75 117.738281 45.8125 117.738281 45.878906 C 117.738281 45.960938 117.699219 46.03125 117.621094 46.085938 C 117.542969 46.140625 117.441406 46.179688 117.3125 46.203125 C 117.453125 46.21875 117.566406 46.257812 117.660156 46.320312 Z M 116.390625 46.097656 L 116.847656 46.097656 C 116.96875 46.097656 117.0625 46.082031 117.125 46.054688 C 117.191406 46.023438 117.222656 45.980469 117.222656 45.921875 C 117.222656 45.867188 117.191406 45.824219 117.125 45.792969 C 117.0625 45.761719 116.96875 45.746094 116.847656 45.746094 L 116.390625 45.746094 Z M 117.183594 46.644531 C 117.25 46.613281 117.285156 46.570312 117.285156 46.507812 C 117.285156 46.449219 117.25 46.402344 117.175781 46.367188 C 117.105469 46.332031 117.007812 46.316406 116.886719 46.316406 L 116.390625 46.316406 L 116.390625 46.695312 L 116.894531 46.695312 C 117.019531 46.695312 117.113281 46.679688 117.183594 46.644531 Z M 117.183594 46.644531 "/>
<path style=" stroke:none;fill-rule:nonzero;fill:rgb(96.078432%,51.764709%,12.54902%);fill-opacity:1;" d="M 118.703125 45.519531 L 118.703125 46.925781 L 118.199219 46.925781 L 118.199219 45.519531 Z M 118.703125 45.519531 "/>
<path style=" stroke:none;fill-rule:nonzero;fill:rgb(96.078432%,51.764709%,12.54902%);fill-opacity:1;" d="M 119.703125 46.699219 L 120.53125 46.699219 L 120.53125 46.925781 L 119.199219 46.925781 L 119.199219 45.519531 L 119.703125 45.519531 Z M 119.703125 46.699219 "/>
<path style=" stroke:none;fill-rule:nonzero;fill:rgb(96.078432%,51.764709%,12.54902%);fill-opacity:1;" d="M 121.355469 45.519531 L 121.355469 46.925781 L 120.851562 46.925781 L 120.851562 45.519531 Z M 121.355469 45.519531 "/>
<path style=" stroke:none;fill-rule:nonzero;fill:rgb(96.078432%,51.764709%,12.54902%);fill-opacity:1;" d="M 123.558594 45.519531 L 123.558594 45.746094 L 122.890625 45.746094 L 122.890625 46.925781 L 122.386719 46.925781 L 122.386719 45.746094 L 121.71875 45.746094 L 121.71875 45.519531 Z M 123.558594 45.519531 "/>
<path style=" stroke:none;fill-rule:nonzero;fill:rgb(96.078432%,51.764709%,12.54902%);fill-opacity:1;" d="M 125.46875 46.65625 L 124.46875 46.65625 L 124.300781 46.925781 L 123.773438 46.925781 L 124.675781 45.515625 L 125.261719 45.515625 L 126.164062 46.925781 L 125.632812 46.925781 Z M 125.332031 46.429688 L 124.96875 45.84375 L 124.605469 46.429688 Z M 125.332031 46.429688 "/>
<path style=" stroke:none;fill-rule:nonzero;fill:rgb(96.078432%,51.764709%,12.54902%);fill-opacity:1;" d="M 128.214844 45.519531 L 128.214844 45.746094 L 127.542969 45.746094 L 127.542969 46.925781 L 127.039062 46.925781 L 127.039062 45.746094 L 126.371094 45.746094 L 126.371094 45.519531 Z M 128.214844 45.519531 "/>
<path style=" stroke:none;fill-rule:nonzero;fill:rgb(96.078432%,51.764709%,12.54902%);fill-opacity:1;" d="M 129.082031 45.519531 L 129.082031 46.925781 L 128.578125 46.925781 L 128.578125 45.519531 Z M 129.082031 45.519531 "/>
<path style=" stroke:none;fill-rule:nonzero;fill:rgb(96.078432%,51.764709%,12.54902%);fill-opacity:1;" d="M 130.097656 46.847656 C 129.902344 46.785156 129.746094 46.699219 129.628906 46.589844 C 129.515625 46.480469 129.457031 46.355469 129.457031 46.21875 C 129.457031 46.078125 129.515625 45.957031 129.628906 45.847656 C 129.746094 45.738281 129.902344 45.652344 130.097656 45.589844 C 130.296875 45.527344 130.511719 45.496094 130.746094 45.496094 C 130.984375 45.496094 131.199219 45.527344 131.394531 45.589844 C 131.589844 45.652344 131.746094 45.738281 131.859375 45.847656 C 131.972656 45.957031 132.03125 46.078125 132.03125 46.21875 C 132.03125 46.355469 131.972656 46.480469 131.859375 46.589844 C 131.746094 46.699219 131.589844 46.785156 131.394531 46.847656 C 131.195312 46.90625 130.980469 46.9375 130.746094 46.9375 C 130.511719 46.9375 130.296875 46.90625 130.097656 46.847656 Z M 131.144531 46.628906 C 131.261719 46.589844 131.351562 46.535156 131.414062 46.464844 C 131.480469 46.394531 131.511719 46.3125 131.511719 46.21875 C 131.511719 46.121094 131.480469 46.039062 131.414062 45.96875 C 131.351562 45.898438 131.261719 45.84375 131.144531 45.808594 C 131.03125 45.769531 130.898438 45.75 130.746094 45.75 C 130.59375 45.75 130.460938 45.769531 130.34375 45.808594 C 130.230469 45.84375 130.136719 45.898438 130.074219 45.96875 C 130.007812 46.039062 129.976562 46.121094 129.976562 46.21875 C 129.976562 46.3125 130.007812 46.394531 130.074219 46.464844 C 130.136719 46.535156 130.230469 46.589844 130.34375 46.628906 C 130.460938 46.667969 130.59375 46.6875 130.746094 46.6875 C 130.898438 46.6875 131.03125 46.667969 131.144531 46.628906 Z M 131.144531 46.628906 "/>
<path style=" stroke:none;fill-rule:nonzero;fill:rgb(96.078432%,51.764709%,12.54902%);fill-opacity:1;" d="M 134.554688 46.925781 L 134.050781 46.925781 L 132.910156 45.960938 L 132.910156 46.925781 L 132.40625 46.925781 L 132.40625 45.515625 L 132.910156 45.515625 L 134.050781 46.484375 L 134.050781 45.515625 L 134.554688 45.515625 Z M 134.554688 46.925781 "/>
<path style=" stroke:none;fill-rule:nonzero;fill:rgb(96.078432%,51.764709%,12.54902%);fill-opacity:1;" d="M 137.4375 46.085938 L 137.4375 46.324219 L 135.914062 46.324219 L 135.914062 46.085938 Z M 137.4375 46.085938 "/>
<path style=" stroke:none;fill-rule:nonzero;fill:rgb(96.078432%,51.764709%,12.54902%);fill-opacity:1;" d="M 140.410156 45.519531 L 140.410156 45.746094 L 139.363281 45.746094 L 139.363281 46.105469 L 140.167969 46.105469 L 140.167969 46.328125 L 139.363281 46.328125 L 139.363281 46.925781 L 138.859375 46.925781 L 138.859375 45.519531 Z M 140.410156 45.519531 "/>
<path style=" stroke:none;fill-rule:nonzero;fill:rgb(96.078432%,51.764709%,12.54902%);fill-opacity:1;" d="M 141.269531 45.519531 L 141.269531 46.925781 L 140.769531 46.925781 L 140.769531 45.519531 Z M 141.269531 45.519531 "/>
<path style=" stroke:none;fill-rule:nonzero;fill:rgb(96.078432%,51.764709%,12.54902%);fill-opacity:1;" d="M 143.476562 45.519531 L 143.476562 45.746094 L 142.808594 45.746094 L 142.808594 46.925781 L 142.304688 46.925781 L 142.304688 45.746094 L 141.632812 45.746094 L 141.632812 45.519531 Z M 143.476562 45.519531 "/>
<path style=" stroke:none;fill-rule:nonzero;fill:rgb(96.078432%,51.764709%,12.54902%);fill-opacity:1;" d="M 145.992188 46.925781 L 145.488281 46.925781 L 144.347656 45.960938 L 144.347656 46.925781 L 143.84375 46.925781 L 143.84375 45.515625 L 144.347656 45.515625 L 145.488281 46.484375 L 145.488281 45.515625 L 145.992188 45.515625 Z M 145.992188 46.925781 "/>
<path style=" stroke:none;fill-rule:nonzero;fill:rgb(96.078432%,51.764709%,12.54902%);fill-opacity:1;" d="M 146.992188 45.746094 L 146.992188 46.097656 L 147.839844 46.097656 L 147.839844 46.320312 L 146.992188 46.320312 L 146.992188 46.695312 L 147.945312 46.695312 L 147.945312 46.925781 L 146.488281 46.925781 L 146.488281 45.515625 L 147.945312 45.515625 L 147.945312 45.746094 Z M 146.992188 45.746094 "/>
<path style=" stroke:none;fill-rule:nonzero;fill:rgb(96.078432%,51.764709%,12.54902%);fill-opacity:1;" d="M 148.796875 46.886719 C 148.65625 46.855469 148.546875 46.804688 148.464844 46.742188 C 148.382812 46.679688 148.339844 46.605469 148.339844 46.519531 L 148.878906 46.519531 C 148.886719 46.578125 148.921875 46.621094 148.988281 46.65625 C 149.054688 46.691406 149.144531 46.707031 149.257812 46.707031 C 149.378906 46.707031 149.46875 46.691406 149.535156 46.660156 C 149.605469 46.628906 149.636719 46.585938 149.636719 46.535156 C 149.636719 46.492188 149.613281 46.460938 149.570312 46.433594 C 149.523438 46.40625 149.46875 46.382812 149.398438 46.367188 C 149.332031 46.355469 149.234375 46.335938 149.117188 46.316406 C 148.953125 46.289062 148.820312 46.265625 148.71875 46.238281 C 148.617188 46.210938 148.527344 46.171875 148.457031 46.121094 C 148.382812 46.066406 148.347656 45.996094 148.347656 45.90625 C 148.347656 45.824219 148.382812 45.75 148.457031 45.6875 C 148.53125 45.628906 148.636719 45.578125 148.769531 45.546875 C 148.90625 45.515625 149.058594 45.496094 149.230469 45.496094 C 149.492188 45.496094 149.699219 45.53125 149.863281 45.601562 C 150.023438 45.675781 150.113281 45.773438 150.128906 45.898438 L 149.578125 45.898438 C 149.570312 45.851562 149.535156 45.808594 149.464844 45.777344 C 149.398438 45.746094 149.308594 45.730469 149.195312 45.730469 C 149.097656 45.730469 149.019531 45.746094 148.960938 45.773438 C 148.898438 45.800781 148.871094 45.84375 148.871094 45.894531 C 148.871094 45.933594 148.894531 45.964844 148.9375 45.992188 C 148.980469 46.015625 149.035156 46.035156 149.101562 46.050781 C 149.167969 46.066406 149.261719 46.085938 149.382812 46.105469 C 149.542969 46.132812 149.679688 46.15625 149.78125 46.183594 C 149.882812 46.210938 149.972656 46.253906 150.046875 46.304688 C 150.121094 46.359375 150.160156 46.429688 150.160156 46.515625 C 150.160156 46.59375 150.125 46.664062 150.054688 46.726562 C 149.984375 46.792969 149.882812 46.84375 149.75 46.882812 C 149.613281 46.917969 149.453125 46.9375 149.269531 46.9375 C 149.09375 46.9375 148.9375 46.921875 148.796875 46.886719 Z M 148.796875 46.886719 "/>
<path style=" stroke:none;fill-rule:nonzero;fill:rgb(96.078432%,51.764709%,12.54902%);fill-opacity:1;" d="M 150.988281 46.886719 C 150.847656 46.855469 150.738281 46.804688 150.65625 46.742188 C 150.574219 46.679688 150.53125 46.605469 150.53125 46.519531 L 151.070312 46.519531 C 151.078125 46.578125 151.113281 46.621094 151.179688 46.65625 C 151.246094 46.691406 151.335938 46.707031 151.449219 46.707031 C 151.570312 46.707031 151.660156 46.691406 151.726562 46.660156 C 151.796875 46.628906 151.828125 46.585938 151.828125 46.535156 C 151.828125 46.492188 151.804688 46.460938 151.761719 46.433594 C 151.714844 46.40625 151.660156 46.382812 151.589844 46.367188 C 151.523438 46.355469 151.425781 46.335938 151.308594 46.316406 C 151.144531 46.289062 151.011719 46.265625 150.910156 46.238281 C 150.808594 46.210938 150.71875 46.171875 150.648438 46.121094 C 150.574219 46.066406 150.539062 45.996094 150.539062 45.90625 C 150.539062 45.824219 150.574219 45.75 150.648438 45.6875 C 150.722656 45.628906 150.828125 45.578125 150.960938 45.546875 C 151.097656 45.515625 151.25 45.496094 151.421875 45.496094 C 151.683594 45.496094 151.890625 45.53125 152.054688 45.601562 C 152.214844 45.675781 152.304688 45.773438 152.320312 45.898438 L 151.769531 45.898438 C 151.761719 45.851562 151.726562 45.808594 151.65625 45.777344 C 151.589844 45.746094 151.5 45.730469 151.386719 45.730469 C 151.289062 45.730469 151.210938 45.746094 151.152344 45.773438 C 151.089844 45.800781 151.0625 45.84375 151.0625 45.894531 C 151.0625 45.933594 151.085938 45.964844 151.128906 45.992188 C 151.171875 46.015625 151.226562 46.035156 151.292969 46.050781 C 151.359375 46.066406 151.453125 46.085938 151.574219 46.105469 C 151.734375 46.132812 151.871094 46.15625 151.972656 46.183594 C 152.074219 46.210938 152.164062 46.253906 152.238281 46.304688 C 152.3125 46.359375 152.351562 46.429688 152.351562 46.515625 C 152.351562 46.59375 152.316406 46.664062 152.246094 46.726562 C 152.175781 46.792969 152.074219 46.84375 151.941406 46.882812 C 151.804688 46.917969 151.644531 46.9375 151.460938 46.9375 C 151.285156 46.9375 151.128906 46.921875 150.988281 46.886719 Z M 150.988281 46.886719 "/>
<path style=" stroke:none;fill-rule:nonzero;fill:rgb(96.078432%,51.764709%,12.54902%);fill-opacity:1;" d="M 155.175781 46.085938 L 155.175781 46.324219 L 153.648438 46.324219 L 153.648438 46.085938 Z M 155.175781 46.085938 "/>
<path style=" stroke:none;fill-rule:nonzero;fill:rgb(96.078432%,51.764709%,12.54902%);fill-opacity:1;" d="M 159.953125 45.519531 L 159.253906 46.925781 L 158.660156 46.925781 L 158.1875 45.921875 L 157.695312 46.925781 L 157.105469 46.925781 L 156.425781 45.519531 L 156.96875 45.519531 L 157.410156 46.609375 L 157.921875 45.519531 L 158.480469 45.519531 L 158.964844 46.605469 L 159.410156 45.519531 Z M 159.953125 45.519531 "/>
<path style=" stroke:none;fill-rule:nonzero;fill:rgb(96.078432%,51.764709%,12.54902%);fill-opacity:1;" d="M 160.785156 45.746094 L 160.785156 46.097656 L 161.628906 46.097656 L 161.628906 46.320312 L 160.785156 46.320312 L 160.785156 46.695312 L 161.738281 46.695312 L 161.738281 46.925781 L 160.28125 46.925781 L 160.28125 45.515625 L 161.738281 45.515625 L 161.738281 45.746094 Z M 160.785156 45.746094 "/>
<path style=" stroke:none;fill-rule:nonzero;fill:rgb(96.078432%,51.764709%,12.54902%);fill-opacity:1;" d="M 162.699219 46.699219 L 163.527344 46.699219 L 163.527344 46.925781 L 162.195312 46.925781 L 162.195312 45.519531 L 162.699219 45.519531 Z M 162.699219 46.699219 "/>
<path style=" stroke:none;fill-rule:nonzero;fill:rgb(96.078432%,51.764709%,12.54902%);fill-opacity:1;" d="M 164.351562 46.699219 L 165.179688 46.699219 L 165.179688 46.925781 L 163.847656 46.925781 L 163.847656 45.519531 L 164.351562 45.519531 Z M 164.351562 46.699219 "/>
<path style=" stroke:none;fill-rule:nonzero;fill:rgb(96.078432%,51.764709%,12.54902%);fill-opacity:1;" d="M 167.648438 46.925781 L 167.144531 46.925781 L 166.003906 45.960938 L 166.003906 46.925781 L 165.5 46.925781 L 165.5 45.515625 L 166.003906 45.515625 L 167.144531 46.484375 L 167.144531 45.515625 L 167.648438 45.515625 Z M 167.648438 46.925781 "/>
<path style=" stroke:none;fill-rule:nonzero;fill:rgb(96.078432%,51.764709%,12.54902%);fill-opacity:1;" d="M 168.648438 45.746094 L 168.648438 46.097656 L 169.492188 46.097656 L 169.492188 46.320312 L 168.648438 46.320312 L 168.648438 46.695312 L 169.601562 46.695312 L 169.601562 46.925781 L 168.144531 46.925781 L 168.144531 45.515625 L 169.601562 45.515625 L 169.601562 45.746094 Z M 168.648438 45.746094 "/>
<path style=" stroke:none;fill-rule:nonzero;fill:rgb(96.078432%,51.764709%,12.54902%);fill-opacity:1;" d="M 170.453125 46.886719 C 170.3125 46.855469 170.199219 46.804688 170.121094 46.742188 C 170.039062 46.679688 169.996094 46.605469 169.992188 46.519531 L 170.53125 46.519531 C 170.539062 46.578125 170.578125 46.621094 170.644531 46.65625 C 170.707031 46.691406 170.800781 46.707031 170.914062 46.707031 C 171.03125 46.707031 171.125 46.691406 171.191406 46.660156 C 171.257812 46.628906 171.292969 46.585938 171.292969 46.535156 C 171.292969 46.492188 171.269531 46.460938 171.222656 46.433594 C 171.179688 46.40625 171.121094 46.382812 171.054688 46.367188 C 170.984375 46.355469 170.890625 46.335938 170.769531 46.316406 C 170.609375 46.289062 170.476562 46.265625 170.375 46.238281 C 170.269531 46.210938 170.183594 46.171875 170.109375 46.121094 C 170.039062 46.066406 170 45.996094 170 45.90625 C 170 45.824219 170.039062 45.75 170.113281 45.6875 C 170.1875 45.628906 170.289062 45.578125 170.425781 45.546875 C 170.558594 45.515625 170.714844 45.496094 170.886719 45.496094 C 171.144531 45.496094 171.355469 45.53125 171.515625 45.601562 C 171.679688 45.675781 171.769531 45.773438 171.785156 45.898438 L 171.230469 45.898438 C 171.226562 45.851562 171.191406 45.808594 171.121094 45.777344 C 171.054688 45.746094 170.960938 45.730469 170.851562 45.730469 C 170.75 45.730469 170.671875 45.746094 170.613281 45.773438 C 170.554688 45.800781 170.527344 45.84375 170.527344 45.894531 C 170.527344 45.933594 170.546875 45.964844 170.59375 45.992188 C 170.636719 46.015625 170.691406 46.035156 170.757812 46.050781 C 170.824219 46.066406 170.917969 46.085938 171.035156 46.105469 C 171.199219 46.132812 171.332031 46.15625 171.4375 46.183594 C 171.539062 46.210938 171.628906 46.253906 171.703125 46.304688 C 171.777344 46.359375 171.8125 46.429688 171.8125 46.515625 C 171.8125 46.59375 171.777344 46.664062 171.710938 46.726562 C 171.640625 46.792969 171.539062 46.84375 171.402344 46.882812 C 171.269531 46.917969 171.109375 46.9375 170.925781 46.9375 C 170.75 46.9375 170.59375 46.921875 170.453125 46.886719 Z M 170.453125 46.886719 "/>
<path style=" stroke:none;fill-rule:nonzero;fill:rgb(96.078432%,51.764709%,12.54902%);fill-opacity:1;" d="M 172.644531 46.886719 C 172.503906 46.855469 172.390625 46.804688 172.3125 46.742188 C 172.230469 46.679688 172.1875 46.605469 172.183594 46.519531 L 172.722656 46.519531 C 172.730469 46.578125 172.769531 46.621094 172.835938 46.65625 C 172.898438 46.691406 172.992188 46.707031 173.105469 46.707031 C 173.222656 46.707031 173.316406 46.691406 173.382812 46.660156 C 173.449219 46.628906 173.484375 46.585938 173.484375 46.535156 C 173.484375 46.492188 173.460938 46.460938 173.414062 46.433594 C 173.371094 46.40625 173.3125 46.382812 173.246094 46.367188 C 173.175781 46.355469 173.082031 46.335938 172.960938 46.316406 C 172.800781 46.289062 172.667969 46.265625 172.5625 46.238281 C 172.460938 46.210938 172.375 46.171875 172.300781 46.121094 C 172.230469 46.066406 172.191406 45.996094 172.191406 45.90625 C 172.191406 45.824219 172.230469 45.75 172.304688 45.6875 C 172.378906 45.628906 172.480469 45.578125 172.617188 45.546875 C 172.75 45.515625 172.902344 45.496094 173.078125 45.496094 C 173.335938 45.496094 173.546875 45.53125 173.707031 45.601562 C 173.871094 45.675781 173.960938 45.773438 173.976562 45.898438 L 173.421875 45.898438 C 173.417969 45.851562 173.378906 45.808594 173.3125 45.777344 C 173.246094 45.746094 173.152344 45.730469 173.039062 45.730469 C 172.941406 45.730469 172.863281 45.746094 172.804688 45.773438 C 172.746094 45.800781 172.71875 45.84375 172.71875 45.894531 C 172.71875 45.933594 172.738281 45.964844 172.785156 45.992188 C 172.828125 46.015625 172.882812 46.035156 172.949219 46.050781 C 173.015625 46.066406 173.109375 46.085938 173.226562 46.105469 C 173.390625 46.132812 173.523438 46.15625 173.628906 46.183594 C 173.730469 46.210938 173.820312 46.253906 173.894531 46.304688 C 173.96875 46.359375 174.003906 46.429688 174.003906 46.515625 C 174.003906 46.59375 173.96875 46.664062 173.902344 46.726562 C 173.832031 46.792969 173.730469 46.84375 173.59375 46.882812 C 173.460938 46.917969 173.300781 46.9375 173.117188 46.9375 C 172.941406 46.9375 172.785156 46.921875 172.644531 46.886719 Z M 172.644531 46.886719 "/>
<path style=" stroke:none;fill-rule:nonzero;fill:rgb(2.745098%,3.137255%,3.137255%);fill-opacity:1;" d="M 69.363281 44.058594 C 69.621094 43.875 69.785156 43.578125 69.867188 43.167969 C 69.945312 42.757812 69.984375 42.289062 69.984375 41.761719 L 69.984375 38.773438 C 69.984375 38.246094 69.945312 37.777344 69.867188 37.367188 C 69.785156 36.957031 69.621094 36.660156 69.363281 36.476562 L 69.363281 36.421875 L 73.671875 36.421875 C 74.585938 36.421875 75.378906 36.488281 76.042969 36.621094 C 76.707031 36.75 77.253906 36.933594 77.679688 37.167969 C 78.105469 37.402344 78.417969 37.683594 78.621094 38.007812 C 78.824219 38.335938 78.921875 38.6875 78.921875 39.070312 C 78.921875 39.664062 78.746094 40.144531 78.390625 40.515625 C 78.03125 40.886719 77.566406 41.175781 76.992188 41.382812 C 76.417969 41.59375 75.769531 41.738281 75.046875 41.824219 C 74.320312 41.90625 73.59375 41.960938 72.859375 41.984375 C 72.871094 42.464844 72.914062 42.890625 72.996094 43.257812 C 73.074219 43.625 73.238281 43.890625 73.480469 44.058594 L 73.480469 44.113281 L 69.363281 44.113281 Z M 72.859375 40.53125 C 73.253906 40.511719 73.636719 40.476562 74.007812 40.425781 C 74.378906 40.378906 74.710938 40.304688 74.996094 40.203125 C 75.285156 40.097656 75.511719 39.964844 75.683594 39.796875 C 75.855469 39.625 75.9375 39.414062 75.9375 39.15625 C 75.9375 38.792969 75.722656 38.515625 75.285156 38.328125 C 74.847656 38.140625 74.230469 38.046875 73.433594 38.046875 L 72.859375 38.046875 Z M 72.859375 40.53125 "/>
<path style=" stroke:none;fill-rule:nonzero;fill:rgb(2.745098%,3.137255%,3.137255%);fill-opacity:1;" d="M 84 36.421875 L 84 36.476562 C 83.742188 36.660156 83.574219 36.957031 83.496094 37.367188 C 83.417969 37.777344 83.375 38.246094 83.375 38.773438 L 83.375 39.773438 L 86.96875 39.464844 L 86.96875 38.773438 C 86.96875 38.246094 86.925781 37.777344 86.847656 37.367188 C 86.769531 36.957031 86.601562 36.660156 86.34375 36.476562 L 86.34375 36.421875 L 90.460938 36.421875 L 90.460938 36.476562 C 90.207031 36.660156 90.039062 36.957031 89.960938 37.367188 C 89.878906 37.777344 89.839844 38.246094 89.839844 38.773438 L 89.839844 41.761719 C 89.839844 42.289062 89.878906 42.757812 89.960938 43.167969 C 90.039062 43.578125 90.207031 43.875 90.460938 44.058594 L 90.460938 44.113281 L 86.34375 44.113281 L 86.34375 44.058594 C 86.601562 43.875 86.765625 43.578125 86.847656 43.167969 C 86.925781 42.757812 86.96875 42.289062 86.96875 41.761719 L 86.96875 40.882812 L 83.375 41.191406 L 83.375 41.761719 C 83.375 42.289062 83.417969 42.757812 83.496094 43.167969 C 83.574219 43.578125 83.742188 43.875 84 44.058594 L 84 44.113281 L 79.882812 44.113281 L 79.882812 44.058594 C 80.136719 43.875 80.304688 43.578125 80.382812 43.167969 C 80.464844 42.757812 80.503906 42.289062 80.503906 41.761719 L 80.503906 38.773438 C 80.503906 38.246094 80.464844 37.777344 80.382812 37.367188 C 80.304688 36.957031 80.136719 36.660156 79.882812 36.476562 L 79.882812 36.421875 Z M 84 36.421875 "/>
<path style=" stroke:none;fill-rule:nonzero;fill:rgb(2.745098%,3.137255%,3.137255%);fill-opacity:1;" d="M 91.914062 37.210938 C 91.820312 37.089844 91.6875 36.949219 91.515625 36.796875 C 91.347656 36.640625 91.179688 36.535156 91.019531 36.476562 L 91.019531 36.421875 L 95.027344 36.421875 L 95.027344 36.476562 C 94.941406 36.542969 94.898438 36.625 94.898438 36.730469 C 94.898438 36.808594 94.925781 36.890625 94.980469 36.976562 C 95.03125 37.0625 95.085938 37.140625 95.140625 37.210938 L 96.527344 39.101562 L 97.933594 37.210938 C 97.984375 37.140625 98.039062 37.0625 98.089844 36.976562 C 98.144531 36.890625 98.171875 36.808594 98.171875 36.730469 C 98.171875 36.625 98.128906 36.542969 98.042969 36.476562 L 98.042969 36.421875 L 102.050781 36.421875 L 102.050781 36.476562 C 101.890625 36.535156 101.722656 36.640625 101.546875 36.796875 C 101.371094 36.949219 101.242188 37.089844 101.15625 37.210938 L 97.964844 41.519531 L 97.964844 41.761719 C 97.964844 42.289062 98.003906 42.757812 98.082031 43.167969 C 98.164062 43.578125 98.332031 43.875 98.585938 44.058594 L 98.585938 44.113281 L 94.46875 44.113281 L 94.46875 44.058594 C 94.734375 43.875 94.90625 43.578125 94.980469 43.167969 C 95.054688 42.757812 95.089844 42.289062 95.089844 41.761719 L 95.089844 41.519531 Z M 91.914062 37.210938 "/>
<path style=" stroke:none;fill-rule:nonzero;fill:rgb(2.745098%,3.137255%,3.137255%);fill-opacity:1;" d="M 102.289062 41.191406 C 102.492188 41.367188 102.765625 41.539062 103.109375 41.707031 C 103.457031 41.875 103.851562 42.023438 104.292969 42.152344 C 104.734375 42.28125 105.207031 42.382812 105.710938 42.460938 C 106.21875 42.539062 106.726562 42.574219 107.234375 42.574219 C 107.609375 42.574219 107.917969 42.535156 108.160156 42.453125 C 108.40625 42.375 108.527344 42.238281 108.527344 42.046875 L 108.527344 41.992188 C 108.527344 41.855469 108.445312 41.734375 108.28125 41.636719 C 108.117188 41.539062 107.890625 41.449219 107.601562 41.367188 C 107.316406 41.285156 106.984375 41.210938 106.605469 41.136719 C 106.226562 41.0625 105.828125 40.980469 105.402344 40.894531 C 104.976562 40.804688 104.578125 40.703125 104.210938 40.582031 C 103.84375 40.460938 103.527344 40.3125 103.253906 40.136719 C 102.984375 39.960938 102.769531 39.75 102.609375 39.503906 C 102.449219 39.257812 102.371094 38.96875 102.371094 38.628906 L 102.371094 38.519531 C 102.371094 38.035156 102.511719 37.648438 102.792969 37.355469 C 103.074219 37.0625 103.4375 36.839844 103.878906 36.683594 C 104.320312 36.53125 104.804688 36.429688 105.328125 36.378906 C 105.855469 36.324219 106.371094 36.300781 106.871094 36.300781 C 107.125 36.300781 107.386719 36.308594 107.652344 36.328125 C 107.917969 36.347656 108.171875 36.363281 108.410156 36.382812 C 108.648438 36.402344 108.871094 36.417969 109.070312 36.4375 C 109.273438 36.457031 109.445312 36.464844 109.582031 36.464844 C 109.742188 36.464844 109.898438 36.460938 110.054688 36.453125 C 110.207031 36.445312 110.34375 36.417969 110.460938 36.367188 L 110.539062 36.378906 C 110.59375 36.808594 110.644531 37.238281 110.699219 37.664062 C 110.753906 38.089844 110.804688 38.515625 110.859375 38.949219 L 110.796875 38.972656 C 110.613281 38.816406 110.371094 38.679688 110.0625 38.554688 C 109.753906 38.429688 109.417969 38.324219 109.054688 38.234375 C 108.695312 38.148438 108.320312 38.078125 107.929688 38.03125 C 107.542969 37.984375 107.183594 37.960938 106.855469 37.960938 C 106.417969 37.960938 106.054688 37.996094 105.769531 38.070312 C 105.480469 38.144531 105.335938 38.265625 105.335938 38.445312 C 105.335938 38.5625 105.390625 38.65625 105.496094 38.730469 C 105.605469 38.800781 105.746094 38.867188 105.921875 38.921875 C 106.097656 38.976562 106.304688 39.027344 106.542969 39.074219 C 106.78125 39.121094 107.035156 39.171875 107.300781 39.222656 C 107.769531 39.320312 108.25 39.417969 108.746094 39.527344 C 109.238281 39.632812 109.691406 39.777344 110.101562 39.960938 C 110.511719 40.144531 110.847656 40.382812 111.105469 40.675781 C 111.367188 40.96875 111.496094 41.347656 111.496094 41.816406 L 111.496094 41.925781 C 111.496094 42.382812 111.371094 42.757812 111.113281 43.054688 C 110.859375 43.351562 110.523438 43.585938 110.109375 43.761719 C 109.695312 43.9375 109.222656 44.0625 108.695312 44.132812 C 108.171875 44.199219 107.628906 44.234375 107.078125 44.234375 C 106.578125 44.234375 106.140625 44.214844 105.769531 44.175781 C 105.394531 44.132812 105.066406 44.089844 104.777344 44.039062 C 104.492188 43.984375 104.242188 43.941406 104.027344 43.898438 C 103.816406 43.859375 103.625 43.839844 103.453125 43.839844 C 103.328125 43.839844 103.195312 43.855469 103.054688 43.882812 C 102.917969 43.914062 102.804688 43.957031 102.71875 44.015625 L 102.640625 44.003906 L 102.210938 41.203125 Z M 102.289062 41.191406 "/>
<path style=" stroke:none;fill-rule:nonzero;fill:rgb(2.745098%,3.137255%,3.137255%);fill-opacity:1;" d="M 116.574219 36.421875 L 116.574219 36.476562 C 116.316406 36.660156 116.148438 36.957031 116.070312 37.367188 C 115.988281 37.777344 115.949219 38.246094 115.949219 38.773438 L 115.949219 41.761719 C 115.949219 42.289062 115.988281 42.757812 116.070312 43.167969 C 116.148438 43.578125 116.316406 43.875 116.574219 44.058594 L 116.574219 44.113281 L 112.453125 44.113281 L 112.453125 44.058594 C 112.710938 43.875 112.878906 43.578125 112.957031 43.167969 C 113.039062 42.757812 113.078125 42.289062 113.078125 41.761719 L 113.078125 38.773438 C 113.078125 38.246094 113.039062 37.777344 112.957031 37.367188 C 112.878906 36.957031 112.710938 36.660156 112.453125 36.476562 L 112.453125 36.421875 Z M 116.574219 36.421875 "/>
<path style=" stroke:none;fill-rule:nonzero;fill:rgb(2.745098%,3.137255%,3.137255%);fill-opacity:1;" d="M 129.851562 40.300781 C 129.851562 40.980469 129.691406 41.570312 129.371094 42.066406 C 129.054688 42.558594 128.621094 42.96875 128.078125 43.289062 C 127.535156 43.613281 126.902344 43.851562 126.179688 44.003906 C 125.457031 44.160156 124.691406 44.234375 123.882812 44.234375 L 123.675781 44.234375 C 122.855469 44.234375 122.082031 44.160156 121.359375 44.003906 C 120.636719 43.851562 120.003906 43.613281 119.460938 43.289062 C 118.917969 42.96875 118.488281 42.558594 118.167969 42.066406 C 117.847656 41.570312 117.6875 40.980469 117.6875 40.300781 L 117.6875 40.246094 C 117.6875 39.566406 117.847656 38.976562 118.167969 38.476562 C 118.488281 37.976562 118.917969 37.566406 119.460938 37.246094 C 120.003906 36.921875 120.636719 36.683594 121.359375 36.53125 C 122.082031 36.378906 122.855469 36.300781 123.675781 36.300781 L 123.882812 36.300781 C 124.691406 36.300781 125.457031 36.378906 126.179688 36.53125 C 126.902344 36.683594 127.535156 36.921875 128.078125 37.246094 C 128.621094 37.566406 129.050781 37.980469 129.371094 38.476562 C 129.691406 38.976562 129.851562 39.566406 129.851562 40.246094 Z M 120.65625 40.269531 C 120.65625 40.613281 120.730469 40.925781 120.875 41.207031 C 121.015625 41.488281 121.21875 41.734375 121.480469 41.9375 C 121.742188 42.144531 122.058594 42.300781 122.429688 42.410156 C 122.800781 42.519531 123.21875 42.574219 123.675781 42.574219 L 123.882812 42.574219 C 124.339844 42.574219 124.75 42.519531 125.117188 42.410156 C 125.484375 42.300781 125.800781 42.144531 126.0625 41.9375 C 126.320312 41.734375 126.523438 41.488281 126.667969 41.207031 C 126.8125 40.925781 126.882812 40.613281 126.882812 40.269531 C 126.882812 39.929688 126.8125 39.621094 126.667969 39.332031 C 126.523438 39.046875 126.320312 38.804688 126.0625 38.601562 C 125.800781 38.402344 125.484375 38.242188 125.117188 38.128906 C 124.75 38.015625 124.339844 37.960938 123.882812 37.960938 L 123.675781 37.960938 C 123.21875 37.960938 122.800781 38.015625 122.429688 38.128906 C 122.058594 38.242188 121.742188 38.402344 121.480469 38.601562 C 121.21875 38.804688 121.015625 39.046875 120.875 39.332031 C 120.730469 39.621094 120.65625 39.929688 120.65625 40.269531 Z M 120.65625 40.269531 "/>
<path style=" stroke:none;fill-rule:nonzero;fill:rgb(2.745098%,3.137255%,3.137255%);fill-opacity:1;" d="M 143.257812 39.992188 L 140.71875 42.621094 L 138.199219 39.992188 L 138.101562 42.621094 C 138.082031 42.972656 138.105469 43.269531 138.183594 43.515625 C 138.257812 43.761719 138.367188 43.941406 138.515625 44.058594 L 138.515625 44.113281 L 134.796875 44.113281 L 134.796875 44.058594 C 134.945312 43.941406 135.050781 43.761719 135.109375 43.515625 C 135.167969 43.269531 135.207031 42.972656 135.230469 42.621094 L 135.371094 38.652344 C 135.382812 38.566406 135.390625 38.480469 135.390625 38.394531 C 135.390625 38.308594 135.390625 38.222656 135.390625 38.136719 C 135.390625 37.8125 135.355469 37.519531 135.285156 37.257812 C 135.214844 36.992188 135.058594 36.734375 134.8125 36.476562 L 134.8125 36.421875 L 137.878906 36.421875 L 140.71875 39.324219 L 143.578125 36.421875 L 146.640625 36.421875 L 146.640625 36.476562 C 146.394531 36.734375 146.238281 36.996094 146.167969 37.261719 C 146.101562 37.53125 146.066406 37.820312 146.066406 38.136719 C 146.066406 38.222656 146.066406 38.308594 146.066406 38.394531 C 146.066406 38.480469 146.070312 38.566406 146.082031 38.652344 L 146.226562 42.621094 C 146.246094 42.972656 146.285156 43.269531 146.34375 43.515625 C 146.402344 43.761719 146.507812 43.941406 146.65625 44.058594 L 146.65625 44.113281 L 142.9375 44.113281 L 142.9375 44.058594 C 143.085938 43.941406 143.199219 43.761719 143.273438 43.515625 C 143.347656 43.269531 143.375 42.972656 143.351562 42.621094 Z M 143.257812 39.992188 "/>
<path style=" stroke:none;fill-rule:nonzero;fill:rgb(2.745098%,3.137255%,3.137255%);fill-opacity:1;" d="M 147.773438 44.058594 C 148.027344 43.875 148.195312 43.578125 148.277344 43.167969 C 148.355469 42.757812 148.394531 42.289062 148.394531 41.761719 L 148.394531 38.773438 C 148.394531 38.246094 148.355469 37.777344 148.277344 37.367188 C 148.195312 36.957031 148.027344 36.660156 147.773438 36.476562 L 147.773438 36.421875 L 153.074219 36.421875 C 153.414062 36.421875 153.75 36.421875 154.085938 36.421875 C 154.421875 36.421875 154.734375 36.417969 155.027344 36.40625 C 155.320312 36.394531 155.582031 36.378906 155.808594 36.355469 C 156.039062 36.332031 156.222656 36.300781 156.359375 36.257812 L 156.441406 36.277344 L 157.015625 38.621094 L 156.933594 38.628906 C 156.699219 38.5 156.457031 38.398438 156.207031 38.328125 C 155.957031 38.257812 155.691406 38.207031 155.410156 38.175781 C 155.128906 38.140625 154.832031 38.121094 154.523438 38.113281 C 154.214844 38.105469 153.886719 38.101562 153.535156 38.101562 L 151.269531 38.101562 L 151.269531 39.53125 L 153.089844 39.53125 C 153.609375 39.53125 154.082031 39.511719 154.507812 39.476562 C 154.933594 39.441406 155.265625 39.351562 155.496094 39.214844 L 155.578125 39.234375 L 155.578125 41.464844 L 155.496094 41.488281 C 155.265625 41.347656 155.023438 41.242188 154.78125 41.167969 C 154.535156 41.097656 154.277344 41.042969 154.003906 41.011719 C 153.734375 40.976562 153.445312 40.957031 153.144531 40.949219 C 152.839844 40.941406 152.515625 40.9375 152.164062 40.9375 L 151.269531 40.9375 L 151.269531 42.433594 L 153.773438 42.433594 C 154.125 42.433594 154.457031 42.429688 154.765625 42.425781 C 155.074219 42.425781 155.367188 42.40625 155.648438 42.371094 C 155.929688 42.339844 156.199219 42.285156 156.449219 42.214844 C 156.699219 42.140625 156.941406 42.039062 157.175781 41.90625 L 157.253906 41.917969 L 156.679688 44.257812 L 156.597656 44.28125 C 156.460938 44.234375 156.277344 44.203125 156.050781 44.179688 C 155.820312 44.160156 155.558594 44.140625 155.265625 44.132812 C 154.972656 44.121094 154.660156 44.113281 154.324219 44.113281 C 153.988281 44.113281 153.652344 44.113281 153.3125 44.113281 L 147.773438 44.113281 Z M 147.773438 44.058594 "/>
<path style=" stroke:none;fill-rule:nonzero;fill:rgb(2.745098%,3.137255%,3.137255%);fill-opacity:1;" d="M 158.292969 44.058594 C 158.546875 43.875 158.714844 43.578125 158.792969 43.167969 C 158.875 42.757812 158.914062 42.289062 158.914062 41.761719 L 158.914062 38.773438 C 158.914062 38.246094 158.875 37.777344 158.792969 37.367188 C 158.714844 36.957031 158.546875 36.660156 158.292969 36.476562 L 158.292969 36.421875 L 163.589844 36.421875 C 163.929688 36.421875 164.269531 36.421875 164.601562 36.421875 C 164.9375 36.421875 165.253906 36.417969 165.542969 36.40625 C 165.835938 36.394531 166.097656 36.378906 166.328125 36.355469 C 166.554688 36.332031 166.738281 36.300781 166.878906 36.257812 L 166.957031 36.277344 L 167.53125 38.621094 L 167.453125 38.628906 C 167.21875 38.5 166.976562 38.398438 166.726562 38.328125 C 166.476562 38.257812 166.210938 38.207031 165.925781 38.175781 C 165.644531 38.140625 165.351562 38.121094 165.042969 38.113281 C 164.734375 38.105469 164.402344 38.101562 164.050781 38.101562 L 161.785156 38.101562 L 161.785156 39.53125 L 163.605469 39.53125 C 164.125 39.53125 164.601562 39.511719 165.027344 39.476562 C 165.453125 39.441406 165.78125 39.351562 166.015625 39.214844 L 166.09375 39.234375 L 166.09375 41.464844 L 166.015625 41.488281 C 165.78125 41.347656 165.542969 41.242188 165.296875 41.167969 C 165.050781 41.097656 164.792969 41.042969 164.523438 41.011719 C 164.25 40.976562 163.964844 40.957031 163.660156 40.949219 C 163.359375 40.941406 163.03125 40.9375 162.679688 40.9375 L 161.785156 40.9375 L 161.785156 42.433594 L 164.292969 42.433594 C 164.644531 42.433594 164.972656 42.429688 165.28125 42.425781 C 165.589844 42.425781 165.886719 42.40625 166.167969 42.371094 C 166.449219 42.339844 166.714844 42.285156 166.964844 42.214844 C 167.214844 42.140625 167.457031 42.039062 167.691406 41.90625 L 167.769531 41.917969 L 167.195312 44.257812 L 167.117188 44.28125 C 166.980469 44.234375 166.792969 44.203125 166.566406 44.179688 C 166.335938 44.160156 166.078125 44.140625 165.785156 44.132812 C 165.492188 44.121094 165.175781 44.113281 164.84375 44.113281 C 164.507812 44.113281 164.167969 44.113281 163.828125 44.113281 L 158.292969 44.113281 Z M 158.292969 44.058594 "/>
<path style=" stroke:none;fill-rule:nonzero;fill:rgb(2.745098%,3.137255%,3.137255%);fill-opacity:1;" d="M 171.425781 44.058594 C 171.691406 43.875 171.863281 43.578125 171.9375 43.167969 C 172.011719 42.757812 172.046875 42.289062 172.046875 41.761719 L 172.046875 38.101562 C 171.707031 38.101562 171.386719 38.105469 171.082031 38.113281 C 170.78125 38.121094 170.492188 38.140625 170.222656 38.175781 C 169.949219 38.207031 169.6875 38.257812 169.4375 38.328125 C 169.1875 38.398438 168.953125 38.5 168.730469 38.628906 L 168.648438 38.621094 L 169.222656 36.277344 L 169.304688 36.257812 C 169.441406 36.300781 169.625 36.332031 169.855469 36.355469 C 170.082031 36.378906 170.34375 36.394531 170.636719 36.40625 C 170.929688 36.414062 171.242188 36.421875 171.578125 36.421875 C 171.914062 36.421875 172.25 36.421875 172.589844 36.421875 L 174.378906 36.421875 C 174.71875 36.421875 175.058594 36.421875 175.390625 36.421875 C 175.726562 36.421875 176.039062 36.414062 176.332031 36.40625 C 176.625 36.394531 176.890625 36.378906 177.125 36.355469 C 177.359375 36.332031 177.542969 36.300781 177.683594 36.257812 L 177.761719 36.277344 L 178.335938 38.621094 L 178.257812 38.628906 C 178.035156 38.5 177.796875 38.398438 177.546875 38.328125 C 177.296875 38.257812 177.03125 38.207031 176.757812 38.175781 C 176.480469 38.140625 176.191406 38.121094 175.886719 38.113281 C 175.582031 38.105469 175.261719 38.101562 174.921875 38.101562 L 174.921875 41.761719 C 174.921875 42.289062 174.960938 42.757812 175.042969 43.167969 C 175.121094 43.578125 175.289062 43.875 175.542969 44.058594 L 175.542969 44.113281 L 171.425781 44.113281 Z M 171.425781 44.058594 "/>
<path style=" stroke:none;fill-rule:nonzero;fill:rgb(96.078432%,51.764709%,12.54902%);fill-opacity:1;" d="M 45.261719 37.679688 C 45.253906 37.667969 45.246094 37.660156 45.238281 37.652344 C 44.609375 36.886719 43.757812 36.199219 42.722656 35.597656 C 40.761719 34.449219 38.15625 33.613281 35.242188 33.140625 C 34.683594 33.050781 34.117188 32.972656 33.546875 32.902344 C 30.089844 32.46875 26.476562 32.324219 23.101562 31.765625 C 23.058594 31.757812 23.019531 31.75 22.976562 31.742188 C 22.136719 31.601562 21.308594 31.433594 20.503906 31.226562 C 18.515625 30.714844 16.5 30.007812 14.960938 29.15625 C 14.632812 28.972656 14.410156 28.839844 14.410156 28.839844 C 14.410156 28.839844 14.410156 28.863281 14.410156 28.839844 C 14.421875 28.992188 14.4375 29.140625 14.457031 29.285156 C 14.46875 29.367188 14.480469 29.449219 14.492188 29.53125 C 14.667969 30.753906 15.199219 31.976562 16.410156 32.980469 C 17.175781 33.613281 18.214844 34.160156 19.609375 34.5625 C 20.75 34.890625 21.847656 35.21875 22.976562 35.519531 L 22.972656 52.375 C 27.714844 51.960938 29.117188 50.242188 29.875 48.050781 C 29.953125 47.828125 30.03125 47.605469 30.109375 47.382812 C 30.28125 46.878906 30.457031 46.378906 30.628906 45.878906 C 30.820312 45.328125 31.011719 44.78125 31.199219 44.230469 C 31.867188 42.300781 32.539062 40.375 33.207031 38.445312 C 33.296875 38.183594 33.386719 37.921875 33.480469 37.65625 C 33.503906 37.660156 33.527344 37.667969 33.550781 37.671875 C 34.886719 37.976562 36.34375 38.363281 37.550781 38.847656 C 39.550781 39.652344 40.871094 40.722656 39.835938 42.105469 C 39.808594 42.140625 39.78125 42.179688 39.753906 42.214844 C 38.589844 43.640625 35.882812 44.65625 33.550781 45.632812 C 33.273438 45.75 33 45.867188 32.738281 45.980469 C 32.738281 45.980469 32.484375 46.09375 32.226562 46.207031 C 31.96875 46.320312 31.707031 46.433594 31.707031 46.433594 C 31.707031 46.433594 32.015625 46.402344 32.546875 46.335938 C 32.824219 46.296875 33.164062 46.253906 33.550781 46.195312 C 33.625 46.183594 33.707031 46.171875 33.789062 46.15625 C 36.230469 45.777344 38.648438 45.300781 40.808594 44.601562 C 44.292969 43.472656 46.238281 41.675781 46.140625 39.738281 C 46.105469 39.0625 45.820312 38.367188 45.261719 37.679688 Z M 45.261719 37.679688 "/>
<path style=" stroke:none;fill-rule:nonzero;fill:rgb(96.078432%,51.764709%,12.54902%);fill-opacity:1;" d="M 61.71875 31.765625 C 59.539062 31.820312 56.304688 32.019531 52.769531 32.628906 C 49.871094 33.125 46.773438 33.898438 43.882812 35.089844 C 44.207031 35.277344 44.515625 35.472656 44.800781 35.675781 C 45.554688 36.203125 46.1875 36.777344 46.675781 37.382812 C 46.75 37.472656 46.816406 37.5625 46.882812 37.652344 C 47.253906 38.167969 47.496094 38.699219 47.605469 39.230469 C 49.28125 38.660156 51.007812 38.121094 52.738281 37.652344 C 52.742188 37.648438 52.746094 37.648438 52.75 37.648438 C 52.753906 37.644531 52.761719 37.644531 52.769531 37.644531 L 52.769531 37.703125 C 53.523438 39.878906 54.277344 42.054688 55.03125 44.230469 C 55.472656 45.503906 55.914062 46.777344 56.355469 48.054688 C 57.121094 50.253906 58.523438 51.996094 63.335938 52.382812 L 63.339844 31.765625 Z M 61.71875 31.765625 "/>
<path style=" stroke:none;fill-rule:nonzero;fill:rgb(96.078432%,51.764709%,12.54902%);fill-opacity:1;" d="M 38.402344 41.832031 C 38.773438 41.335938 39.039062 40.570312 37.082031 39.667969 C 36.992188 39.625 36.894531 39.582031 36.792969 39.539062 C 35.445312 40.847656 34.328125 42.375 33.546875 44.15625 C 33.464844 44.34375 33.386719 44.535156 33.3125 44.726562 C 33.390625 44.695312 33.46875 44.664062 33.546875 44.628906 C 35.558594 43.796875 37.582031 42.929688 38.402344 41.832031 Z M 38.402344 41.832031 "/>
<path style=" stroke:none;fill-rule:nonzero;fill:rgb(96.078432%,51.764709%,12.54902%);fill-opacity:1;" d="M 32.105469 31.539062 C 32.640625 31.761719 33.257812 31.925781 33.925781 32.019531 C 34.316406 32.074219 34.722656 32.101562 35.140625 32.101562 C 36.277344 32.101562 37.328125 31.890625 38.179688 31.539062 C 39.429688 31.019531 40.242188 30.183594 40.242188 29.242188 C 40.242188 27.664062 37.960938 26.386719 35.140625 26.386719 C 32.324219 26.386719 30.039062 27.664062 30.039062 29.242188 C 30.039062 30.183594 30.851562 31.019531 32.105469 31.539062 Z M 32.105469 31.539062 "/>
<path style=" stroke:none;fill-rule:nonzero;fill:rgb(96.078432%,51.764709%,12.54902%);fill-opacity:1;" d="M 47.488281 31.539062 C 48.335938 31.890625 49.386719 32.101562 50.523438 32.101562 C 50.941406 32.101562 51.351562 32.070312 51.738281 32.019531 C 52.40625 31.925781 53.027344 31.761719 53.5625 31.539062 C 54.816406 31.019531 55.628906 30.183594 55.628906 29.242188 C 55.628906 27.664062 53.34375 26.386719 50.523438 26.386719 C 47.707031 26.386719 45.421875 27.664062 45.421875 29.242188 C 45.421875 30.183594 46.234375 31.019531 47.488281 31.539062 Z M 47.488281 31.539062 "/>
</g>
</svg>
